<svg width="24" height="24" fill="none" xmlns="http://www.w3.org/2000/svg">
  <path d="M21.56 18.7c-.38.84-.82 1.61-1.34 2.32a11.9 11.9 0 01-1.73 2.01c-.69.61-1.43.92-2.22.94-.56 0-1.25-.15-2.05-.47a6.08 6.08 0 00-2.2-.47c-.7 0-1.46.16-2.27.47a6.3 6.3 0 01-1.96.5c-.76.03-1.52-.3-2.27-.97a12.5 12.5 0 01-1.8-2.08A14.19 14.19 0 011.8 17.3c-.53-1.5-.8-2.95-.8-4.35 0-1.61.36-3 1.08-4.16a6.24 6.24 0 015.34-3.04c.6 0 1.4.17 2.38.53.98.35 1.6.53 1.88.53.2 0 .9-.2 2.1-.63a7.14 7.14 0 012.83-.48c2.1.16 3.67.96 4.72 2.39-1.88 1.1-2.8 2.63-2.78 4.6.01 1.52.59 2.8 1.72 3.81A5.7 5.7 0 0022 17.6c-.14.38-.28.75-.44 1.1zM16.75.48c0 1.2-.46 2.32-1.36 3.36-1.1 1.23-2.43 1.94-3.86 1.83a3.6 3.6 0 01-.03-.45A5.56 5.56 0 0114.7.55 5.41 5.41 0 0116.73 0l.03.48z" fill="#000"/>
</svg>
