<svg width="24" height="24" fill="none" xmlns="http://www.w3.org/2000/svg">
  <path fill-rule="evenodd" clip-rule="evenodd" d="M14 1a1 1 0 112 0v1.17c1.165.413 2 1.524 2 2.83v1h1c1.306 0 2.418.835 2.83 2H23a1 1 0 110 2h-1.17A3.001 3.001 0 0119 12h-1v1a3.001 3.001 0 01-2 2.83V23a1 1 0 11-2 0v-7.17A3.001 3.001 0 0112 13v-1h-1a3.001 3.001 0 01-2.83-2H1a1 1 0 110-2h7.17A3.001 3.001 0 0111 6h1V5c0-1.306.835-2.417 2-2.83V1zm-4 8a1 1 0 001 1h3v3a1 1 0 102 0v-3h3a1 1 0 100-2h-3V5a1 1 0 00-2 0v3h-3a1 1 0 00-1 1z" fill="#000"/>
</svg>
