<svg data-v-056f37a4="" width="12" height="12" fill="none" xmlns="http://www.w3.org/2000/svg" svg-inline="" role="presentation" focusable="false" tabindex="-1" class="icon"><path data-v-056f37a4="" d="M2 0h2v4H0V2C0 .9.9 0 2 0z"></path><path data-v-056f37a4="" opacity=".2" d="M8 0H4v4h4V0z"></path><path data-v-056f37a4="" d="M8 4H4v4h4V4z"></path><path data-v-056f37a4="" opacity=".4" d="M8 8H4v4h4V8z"></path><path data-v-056f37a4="" opacity=".6" d="M8 0h2a2 2 0 012 2v2H8V0z"></path><path data-v-056f37a4="" opacity=".4" d="M12 4H8v4h4V4z"></path><path data-v-056f37a4="" opacity=".9" d="M8 8h4v2a2 2 0 01-2 2H8V8z"></path><path data-v-056f37a4="" opacity=".2" d="M4 4H0v4h4V4z"></path><path data-v-056f37a4="" opacity=".7" d="M0 8h4v4H2a2 2 0 01-2-2V8z"></path></svg>