<svg data-v-056f37a4="" width="12" height="12" fill="none" xmlns="http://www.w3.org/2000/svg" svg-inline="" role="presentation" focusable="false" tabindex="-1" class="icon"><path data-v-056f37a4="" fill-rule="evenodd" clip-rule="evenodd" d="M8.02 6.96L6 2.25 3.98 6.96h4.04zm1.6 4.24l-.8-1.97H3.18l-.8 1.97a1.19 1.19 0 01-1.15.8c-.32 0-.6-.1-.85-.3a.91.91 0 01-.37-.74c0-.14.03-.28.09-.42l3.89-9C4.23.92 4.5.51 4.83.3 5.16.11 5.55 0 6 0c.45 0 .84.1 1.17.31.32.2.6.62.85 1.22l3.9 9.01c.05.14.08.28.08.42 0 .3-.12.55-.37.74a1.33 1.33 0 01-1.54.1c-.21-.13-.36-.34-.47-.6z"></path></svg>