<svg data-v-056f37a4="" width="12" height="12" fill="none" xmlns="http://www.w3.org/2000/svg" svg-inline="" role="presentation" focusable="false" tabindex="-1" class="icon"><path data-v-056f37a4="" d="M0 11.177v-.032a.813.813 0 01.006-.067l.002-.012.546-3.818.005-.034a.818.818 0 01.009-.04l-.014.074a.823.823 0 01.152-.371l.008-.01a.818.818 0 01.064-.075l.007-.007L7.331.24l.083-.074-.083.074a.823.823 0 01.768-.218.816.816 0 01.305.144l.084.074 3.272 3.272a.83.83 0 01.077.089l-.077-.089a.821.821 0 01.14.971.806.806 0 01-.06.095l-.006.008-.074.083-6.545 6.546-.02.018a.815.815 0 01-.057.05l.077-.068a.819.819 0 01-.354.208l-.014.004a.9.9 0 01-.023.006l-.072.013-3.818.546a.819.819 0 01-.075.007l.075-.007a.826.826 0 01-.231 0l-.028-.005a.796.796 0 01-.062-.013l.09.018A.819.819 0 010 11.215L0 11.187v-.01zm6.272-7.566L2.134 7.75l-.352 2.467 2.467-.352 4.139-4.138-2.116-2.116zm1.637-1.636l-.479.479 2.115 2.115.479-.479-2.115-2.115z"></path></svg>