<svg width="24" height="24" fill="none" xmlns="http://www.w3.org/2000/svg">
  <path fill-rule="evenodd" clip-rule="evenodd" d="M10 7a3 3 0 11-6 0 3 3 0 016 0zM8 7a1 1 0 11-2 0 1 1 0 012 0z" fill="#000"/>
  <path fill-rule="evenodd" clip-rule="evenodd" d="M3 0a3 3 0 00-3 3v18a3 3 0 003 3h18a3 3 0 003-3V3a3 3 0 00-3-3H3zm19 12.6V3c0-.6-.4-1-1-1H3a1 1 0 00-1 1v17.6l4.3-4.3a1 1 0 011.4 0l2.3 2.3 8.3-8.3a1 1 0 011.4 0l2.3 2.3zM9.3 20.7L7 18.4 3.4 22h7.2l-1.3-1.3zm2.1-.7l7.6-7.6 3 3V21c0 .6-.4 1-1 1h-7.6l-2-2z" fill="#000"/>
</svg>
