<?xml version="1.0" standalone="no"?>
<!DOCTYPE svg PUBLIC "-//W3C//DTD SVG 20010904//EN"
 "http://www.w3.org/TR/2001/REC-SVG-20010904/DTD/svg10.dtd">
<svg version="1.0" xmlns="http://www.w3.org/2000/svg"
 width="492.000000pt" height="166.000000pt" viewBox="0 0 492.000000 166.000000"
 preserveAspectRatio="xMidYMid meet">

<g transform="translate(0.000000,166.000000) scale(0.100000,-0.100000)"
fill="#000000" stroke="none">
<path d="M1160 1566 c0 -85 -2 -94 -20 -99 -19 -5 -20 -15 -22 -363 l-3 -358
-61 3 -62 2 -58 -54 -59 -55 -5 -178 -5 -178 -42 -4 -43 -3 0 115 0 116 -105
0 c-98 0 -105 -1 -105 -20 0 -17 -7 -20 -45 -20 l-45 0 0 -180 0 -180 -45 0
c-37 0 -45 3 -45 19 0 10 -24 42 -52 70 -50 48 -56 51 -105 51 l-51 0 0 -82 0
-83 -91 -3 -91 -3 0 -39 0 -40 2460 0 2460 0 0 40 c0 33 -3 40 -20 40 -18 0
-20 7 -20 75 l0 75 -95 0 -95 0 0 140 0 140 -40 0 c-35 0 -40 3 -40 23 0 18
-11 27 -61 46 l-61 23 -61 -24 c-47 -18 -63 -29 -65 -46 -3 -18 -10 -22 -43
-22 l-39 0 0 -85 c0 -84 0 -85 -25 -85 -24 0 -25 -2 -25 -70 l0 -70 -115 0
-115 0 0 205 0 205 -25 6 c-22 5 -25 11 -25 54 0 45 -2 48 -30 54 -28 5 -30 9
-30 50 0 39 -3 45 -22 48 -20 3 -23 10 -26 50 -3 41 -7 49 -28 54 -20 5 -24
12 -24 43 0 31 -4 38 -29 48 -26 9 -30 17 -33 54 l-3 44 -64 17 c-61 16 -67
16 -130 -1 l-66 -18 -3 -46 c-3 -38 -7 -46 -28 -51 -20 -5 -24 -13 -24 -42 0
-30 -4 -37 -30 -45 -28 -10 -30 -15 -30 -59 0 -43 -3 -49 -22 -52 -19 -2 -24
-10 -26 -46 -3 -38 -6 -43 -33 -49 -27 -5 -29 -8 -29 -54 0 -44 -3 -49 -25
-55 -24 -6 -25 -10 -26 -83 l0 -76 -19 43 c-17 36 -23 42 -50 42 l-30 0 0 184
c0 175 -1 184 -20 189 -18 5 -20 14 -20 83 0 80 -16 144 -35 144 -7 0 -17 18
-24 40 -6 22 -18 40 -26 40 -8 0 -21 23 -32 56 l-17 55 -18 -23 c-10 -13 -18
-33 -18 -45 0 -14 -6 -23 -15 -23 -9 0 -15 9 -15 23 0 12 -8 32 -18 45 l-18
23 -17 -55 c-11 -32 -24 -56 -32 -56 -7 0 -19 -16 -25 -35 -6 -19 -17 -38 -25
-42 -25 -15 -45 -84 -45 -159 0 -59 -3 -74 -15 -74 -13 0 -15 -24 -15 -160 0
-133 -2 -160 -14 -160 -35 0 -46 -41 -46 -162 l0 -118 -25 0 c-18 0 -25 -5
-25 -20 0 -26 -12 -26 -28 0 -7 11 -20 20 -31 20 -10 0 -26 9 -36 20 -10 11
-29 20 -41 20 -23 0 -23 2 -26 118 -3 110 -4 118 -25 127 -25 11 -31 53 -11
73 9 9 7 13 -5 18 -9 3 -17 17 -17 29 0 38 -16 71 -54 109 -30 30 -36 42 -36
78 0 24 -7 54 -16 67 l-17 24 -18 -24 c-12 -15 -19 -41 -19 -70 0 -40 -5 -51
-39 -86 -27 -27 -42 -53 -46 -79 -4 -21 -14 -44 -22 -51 -9 -7 -11 -13 -4 -18
6 -3 11 -19 11 -34 0 -20 -7 -31 -25 -39 -25 -11 -25 -14 -25 -127 0 -104 -2
-115 -18 -115 -10 0 -28 -9 -40 -20 -12 -11 -30 -20 -41 -20 -11 0 -25 -9 -31
-20 -8 -14 -21 -20 -45 -20 l-35 0 0 175 0 175 -26 0 c-25 0 -26 2 -22 50 2
42 0 50 -14 50 -15 0 -18 9 -18 50 0 34 -4 50 -13 50 -7 0 -20 19 -28 42 -9
23 -20 43 -26 45 -6 2 -19 -17 -29 -42 -11 -24 -25 -45 -31 -45 -9 0 -13 -17
-13 -50 0 -38 -4 -50 -15 -50 -11 0 -15 -12 -15 -50 0 -47 -2 -50 -25 -50
l-25 0 0 -226 0 -225 -37 3 -38 3 -3 617 c-2 605 -3 618 -22 630 -18 11 -20
24 -20 105 l0 92 -42 11 c-24 6 -59 15 -78 21 -19 5 -47 9 -62 9 l-28 0 0 -94z"/>
</g>
</svg>
