<svg id="cart-icon" viewBox="0 0 24 24" fill="none" xmlns="http://www.w3.org/2000/svg">
   <path fill-rule="evenodd" fill="#ffffff" clip-rule="evenodd" d="M2 2a1 1 0 000 2H3.58c.08 0 .1.017.124.038.047.041.123.139.207.34.083.199.15.438.215.713l.058.257c.043.192.09.402.134.564.126.455.757 2.582 1.351 4.574l.806 2.697.153.514a2.744 2.744 0 00-.106.111c-.43.476-.784 1.204-.784 2.238 0 .874.428 1.618.99 2.123.559.502 1.318.831 2.115.831H9.5a1.5 1.5 0 100 3 1.5 1.5 0 000-3H19.5a1.5 1.5 0 100 3 1.5 1.5 0 000-3H21.999L22 18v1a1 1 0 100-2v0H8.841c-.255 0-.549-.113-.78-.32-.227-.203-.325-.436-.325-.634 0-.54.172-.79.268-.897a.707.707 0 01.074-.071l12.614-.712a1 1 0 00.928-.824l1.364-7.721A1 1 0 0022 4.647H6.075l-.004-.015a6.572 6.572 0 00-.316-1.025c-.146-.35-.368-.749-.726-1.066A2.142 2.142 0 003.579 2H2v1-1zm5.585 7.915c-.351-1.177-.71-2.384-.97-3.268h14.193l-1.019 5.767-11.268.636-.131-.44-.805-2.695z"></path>
</svg>