<svg xmlns="http://www.w3.org/2000/svg" xmlns:xlink="http://www.w3.org/1999/xlink" width="655px" height="177px" viewBox="0 0 655 177"><title>Group 4</title><g id="New-Bundles" stroke="none" stroke-width="1" fill="none" fill-rule="evenodd"><g id="Group-4"><g id="Group"><ellipse id="Oval" fill="#40FF93" cx="89.1819797" cy="88.5" rx="89.1819797" ry="88.5"></ellipse><path d="M121.915505,77.8198351 L90.7120972,77.8198351 L94.3976474,44.6725335 C94.4958763,43.7893905 93.9870504,42.9494233 93.157998,42.6275668 C92.3269811,42.3017851 91.3859478,42.5804658 90.8594407,43.2987555 L53.5324405,94.324797 C53.096304,94.9214092 53.0334374,95.7123128 53.3674158,96.3697638 C53.7033588,97.0311398 54.3811386,97.4452357 55.1198203,97.4452357 L86.3232278,97.4452357 L82.6376777,130.592537 C82.5394488,131.47568 83.0482747,132.315648 83.877327,132.637504 C84.1091474,132.727781 84.348826,132.770957 84.5885046,132.770957 C85.2014533,132.770957 85.7967207,132.484426 86.1758844,131.966315 L123.502885,80.9402738 C123.939021,80.3436616 124.001888,79.552758 123.667909,78.8953071 C123.331966,78.2339311 122.654186,77.8198351 121.915505,77.8198351 Z" id="Path" fill="#000000" fill-rule="nonzero"></path></g><g id="Group-2-Copy" transform="translate(212.000000, 0.000000)" fill="#FFFFFF" fill-rule="nonzero"><path d="M38.342082,176.319672 C44.2286257,176.319672 49.4787863,175.314793 54.0925638,173.305036 C58.7063413,171.295278 62.45835,168.535211 65.3485899,165.024834 C68.2388298,161.514458 70.0551733,157.508341 70.7976202,153.006484 C71.4340033,149.147749 71.1423277,145.764657 69.9225935,142.857208 C68.7028592,139.949758 66.7937099,137.672033 64.1951455,136.024032 C61.5965812,134.376031 58.5472455,133.498436 55.0471384,133.391249 L55.0471384,133.391249 L55.2062342,132.587346 C60.0586554,131.622663 64.2017745,129.505718 67.6355917,126.236512 C71.0694088,122.967307 73.1840569,119.081775 73.9795357,114.579918 C75.0136583,108.309474 73.4094425,103.311877 69.1668885,99.5871262 C64.9243345,95.8623754 58.149506,94 48.8424032,94 L48.8424032,94 L13.5231409,94 L-6.39488462e-14,176.319672 L38.342082,176.319672 Z M39.428377,127.336066 L30.3887195,127.336066 L32.9261672,111.688525 L42.2830056,111.688525 C44.9790438,111.688525 47.1266233,112.353811 48.725744,113.684384 C50.3248647,115.014958 50.9261869,116.957595 50.5297107,119.512295 C50.1332345,121.987161 48.8975503,123.90984 46.8226582,125.28033 C44.747766,126.65082 42.2830056,127.336066 39.428377,127.336066 L39.428377,127.336066 Z M35.3498875,157.95082 L24.9862805,157.95082 L27.6967623,140.942623 L38.3792496,140.942623 C41.8072119,140.942623 44.3516103,141.703792 46.0124447,143.226131 C47.6732792,144.748469 48.2645362,146.926988 47.7862159,149.761688 C46.962442,155.221109 42.8169992,157.95082 35.3498875,157.95082 L35.3498875,157.95082 Z M107.17224,177 C114.275722,177 120.650302,175.898407 126.29598,173.695222 C131.941658,171.492037 136.566873,168.247346 140.171625,163.961149 C143.776377,159.674952 146.082359,154.407336 147.089569,148.158301 L147.089569,148.158301 L155.995427,94 L134.048848,94 L125.302023,147.196911 C124.824923,150.241313 123.247844,152.711551 120.570786,154.607625 C117.893727,156.5037 114.487767,157.451737 110.352904,157.451737 C106.297558,157.451737 103.282554,156.5037 101.307892,154.607625 C99.3332299,152.711551 98.5844487,150.241313 99.0615482,147.196911 L99.0615482,147.196911 L107.808373,94 L85.702761,94 L76.7969029,148.158301 C75.2860877,157.531853 77.2872552,164.682191 82.8004055,169.609315 C88.3135557,174.536438 96.4375007,177 107.17224,177 Z M172.815378,176.319672 L180.009678,133.069688 L180.489298,133.069688 L202.871561,176.319672 L221.416866,176.319672 L235.006098,94 L212.783707,94 L205.749281,137.089203 L205.109788,137.089203 L183.047271,94 L164.182219,94 L150.592988,176.319672 L172.815378,176.319672 Z M260.924463,176.319672 C269.243452,176.319672 276.675882,174.738663 283.221752,171.576644 C289.767623,168.414625 295.153635,163.845777 299.379788,157.870097 C303.605941,151.894418 306.412266,144.699486 307.798764,136.2853 C309.238589,127.549554 308.771979,120.019662 306.398934,113.695625 C304.025889,107.371587 300.013044,102.507974 294.360398,99.1047844 C288.707752,95.7015948 281.668608,94 273.242966,94 L273.242966,94 L242.5267,94 L228.928354,176.319672 L260.924463,176.319672 Z M262.708526,157.270492 L254.589939,157.270492 L261.985087,113.04918 L270.264438,113.04918 C274.55148,113.04918 278.048099,113.643337 280.754295,114.831652 C283.46049,116.019966 285.295881,118.129557 286.260465,121.160426 C287.22505,124.191295 287.251844,128.483913 286.340847,134.038281 C285.376263,139.913093 283.815511,144.539507 281.658593,147.917524 C279.501675,151.295541 276.822273,153.698873 273.620388,155.127521 C270.418504,156.556168 266.781216,157.270492 262.708526,157.270492 L262.708526,157.270492 Z M364.342708,176.319672 L367.365854,158.312244 L334.429477,158.312244 L344.930931,94 L322.814233,94 L309.289634,176.319672 L364.342708,176.319672 Z M429.312433,176.319672 L432.33643,158.312244 L395.889304,158.312244 L398.117512,144.16355 L431.699799,144.16355 L434.723797,126.156122 L401.14151,126.156122 L403.369718,112.007428 L439.976003,112.007428 L443,94 L384.270787,94 L370.742378,176.319672 L429.312433,176.319672 Z" id="BUNDLE"></path><path d="M47.857264,84 C58.2204948,84 66.6904431,81.8333333 73.2671088,77.5 C79.8437745,73.1666667 83.8097032,66.96 85.1648949,58.88 C86.201218,52.64 85.0718915,47.3733333 81.7769156,43.08 C78.4819396,38.7866667 72.4898664,35.68 63.800696,33.76 L63.800696,33.76 L57.4233232,32.32 C50.0361997,30.7466667 46.7943686,28.1333333 47.6978297,24.48 C48.0166983,22.64 49.0463783,21.14 50.7868697,19.98 C52.527361,18.82 55.1115256,18.24 58.5393635,18.24 C62.1266357,18.24 64.6775848,18.9933333 66.1922108,20.5 C67.7068369,22.0066667 68.3445741,24.08 68.1054227,26.72 L68.1054227,26.72 L89.3101872,26.72 C90.2136483,21.3333333 89.6888437,16.64 87.7357733,12.64 C85.7827029,8.64 82.5807303,5.53333333 78.1298555,3.32 C73.6789808,1.10666667 68.1585674,0 61.5686155,0 C55.0849532,0 49.1792403,1.08666667 43.8514767,3.26 C38.5237132,5.43333333 34.1392694,8.47333333 30.6981454,12.38 C27.2570213,16.2866667 25.1113011,20.8533333 24.2609847,26.08 C23.2246616,32.48 24.4735638,37.52 28.0076912,41.2 C31.5418186,44.88 36.7765788,47.52 43.7119717,49.12 L43.7119717,49.12 L51.5242534,50.88 C55.9086972,51.84 58.91802,52.9533333 60.5522217,54.22 C62.1864235,55.4866667 62.8440901,57.04 62.5252215,58.88 C62.2063528,60.88 61.0305247,62.5266667 58.9977371,63.82 C56.9649496,65.1133333 54.1549197,65.76 50.5676475,65.76 C46.342638,65.76 43.1738809,64.78 41.0613761,62.82 C38.9488714,60.86 38.1317705,58 38.6100735,54.24 L38.6100735,54.24 L17.5647433,54.24 C16.448703,61.0666667 16.9867938,66.6733333 19.1790157,71.06 C21.3712376,75.4466667 24.9319375,78.7 29.8611152,80.82 C34.7902929,82.94 40.7890092,84 47.857264,84 Z M121.866465,84 C128.95104,84 135.308653,82.9031168 140.939304,80.7093505 C146.569955,78.5155841 151.18286,75.2847646 154.778017,71.0168919 C158.373175,66.7490192 160.673018,61.5039233 161.677548,55.2816042 L161.677548,55.2816042 L170.559701,1.35483871 L148.671536,1.35483871 L139.947992,54.3243243 C139.472163,57.3557105 137.899281,59.815388 135.229348,61.7033566 C132.559415,63.5913252 129.16252,64.5353095 125.038662,64.5353095 C120.99411,64.5353095 117.987131,63.5913252 116.017725,61.7033566 C114.048319,59.815388 113.30153,57.3557105 113.77736,54.3243243 L113.77736,54.3243243 L122.500904,1.35483871 L100.454129,1.35483871 L91.5719752,55.2816042 C90.0651812,64.6150828 92.0610223,71.7348518 97.5594986,76.6409111 C103.057975,81.5469704 111.160297,84 121.866465,84 Z M187.323008,83.3225806 L191.386748,58.9884073 L203.577967,58.9884073 C209.84622,58.9884073 215.510223,57.8344018 220.569977,55.5263908 C225.629732,53.2183799 229.799713,49.9231272 233.079922,45.6406329 C236.36013,41.3581385 238.478321,36.2551663 239.434495,30.3317162 C240.390669,24.514995 239.965703,19.4320344 238.159596,15.0828346 C236.35349,10.7336347 233.378726,7.35833543 229.235305,4.95693674 C225.091884,2.55553805 219.992289,1.35483871 213.93652,1.35483871 L213.93652,1.35483871 L178.717441,1.35483871 L165.171642,83.3225806 L187.323008,83.3225806 Z M201.84725,41.3225806 L194.132463,41.3225806 L197.870556,18.9677419 L205.664877,18.9677419 C209.562038,18.9677419 212.425258,19.9454358 214.254537,21.9008236 C216.083817,23.8562114 216.720088,26.5778998 216.163351,30.0658888 C215.606614,33.5538778 214.075586,36.3019904 211.570269,38.3102265 C209.064951,40.3184626 205.823945,41.3225806 201.84725,41.3225806 L201.84725,41.3225806 Z M294.304088,83.3225806 L297.320037,65.3921371 L260.969919,65.3921371 L263.192197,51.3039315 L296.6851,51.3039315 L299.701049,33.3734879 L266.208146,33.3734879 L268.430424,19.2852823 L304.939275,19.2852823 L307.955224,1.35483871 L249.382327,1.35483871 L235.889925,83.3225806 L294.304088,83.3225806 Z M325.346314,83.3225806 L329.839007,56.2668221 L337.47261,56.2668221 L347.292923,83.3225806 L371.306966,83.3225806 L359.816803,52.7447707 C364.508288,50.6368763 368.39798,47.6084457 371.485878,43.659479 C374.573777,39.7105122 376.581574,34.8943737 377.509268,29.2110635 C378.463469,23.3943422 378.026127,18.4047694 376.197243,14.242345 C374.368359,10.0799206 371.37323,6.8913968 367.211856,4.67677356 C363.050482,2.46215033 357.94816,1.35483871 351.904891,1.35483871 L351.904891,1.35483871 L316.75851,1.35483871 L303.240672,83.3225806 L325.346314,83.3225806 Z M340.057012,38.6129032 L332.201493,38.6129032 L335.545124,18.9677419 L343.440929,18.9677419 C347.308261,18.9677419 350.215475,19.7598855 352.16257,21.3441727 C354.109665,22.9284599 354.801219,25.4633195 354.237233,28.9487513 C353.673247,32.4341831 352.155856,34.9162331 349.68506,36.3949011 C347.214264,37.8735692 344.004915,38.6129032 340.057012,38.6129032 L340.057012,38.6129032 Z" id="SUPER"></path></g></g></g></svg>