<svg xmlns="http://www.w3.org/2000/svg" xmlns:xlink="http://www.w3.org/1999/xlink" width="203px" height="128px" viewBox="0 0 203 128"><title>Group 70</title><g id="&#x1F336;-Templates" stroke="none" stroke-width="1" fill="none" fill-rule="evenodd"><g id="Artboard-Copy-4" transform="translate(-1361.000000, -15826.000000)"><g id="Group-52-Copy-2" transform="translate(1247.000000, 15775.000000)"><g id="Group-70" transform="translate(114.000000, 51.000000)"><g id="Group-68" transform="translate(0.000000, 63.000000)" fill="#FFFFFF" fill-rule="nonzero"><path d="M17.5088742,20.7205323 C18.9687429,20.7205323 20.2707879,20.4710076 21.4150093,19.9719582 C22.5592306,19.4729087 23.4897325,18.7875475 24.2065149,17.9158745 C24.9232972,17.0442015 25.3737522,16.0494297 25.5578798,14.9315589 C25.7157034,13.973384 25.6433676,13.1333175 25.3408723,12.4113593 C25.038377,11.6894011 24.564906,11.1238118 23.9204595,10.7145913 C23.276013,10.3053707 22.5197747,10.0874525 21.6517447,10.0608365 L21.6517447,10.0608365 L21.6912006,9.86121673 C22.8946059,9.621673 23.9221035,9.0960076 24.7736936,8.28422053 C25.6252836,7.47243346 26.1497184,6.50760456 26.346998,5.38973384 C26.6034614,3.83269962 26.2056143,2.59173004 25.1534567,1.6668251 C24.1012991,0.741920152 22.421135,0.279467681 20.1129642,0.279467681 L20.1129642,0.279467681 L11.3537523,0.279467681 L8,20.7205323 L17.5088742,20.7205323 Z M17.7456097,8.54372624 L15.4966228,8.54372624 L16.1279174,4.63117871 L18.455816,4.63117871 C19.1265665,4.63117871 19.6608653,4.79752852 20.0587124,5.13022814 C20.4565595,5.46292776 20.6061631,5.9486692 20.5075233,6.58745247 C20.4088836,7.20627376 20.1014563,7.68702471 19.5852415,8.02970532 C19.0690266,8.37238593 18.455816,8.54372624 17.7456097,8.54372624 L17.7456097,8.54372624 Z M16.7986678,16.2889734 L14.2340337,16.2889734 L14.9047842,11.9771863 L17.5483301,11.9771863 C18.3966322,11.9771863 19.0262827,12.1701521 19.4372818,12.5560837 C19.8482809,12.9420152 19.9945965,13.4942966 19.8762288,14.2129278 C19.6723733,15.5969582 18.6465196,16.2889734 16.7986678,16.2889734 L16.7986678,16.2889734 Z M35.9238367,21 C37.6993526,21 39.3663648,20.6173954 40.9248732,19.8521863 C42.4833817,19.0869772 43.8084426,17.9524715 44.9000561,16.4486692 C45.9916696,14.9448669 46.721604,13.081749 47.0898591,10.8593156 C47.4712662,8.53041825 47.3446785,6.55750951 46.710096,4.94058935 C46.0755134,3.3236692 45.0628118,2.0960076 43.6719909,1.25760456 C42.2811701,0.419201521 40.6453939,0 38.7646622,0 C36.9759943,0 35.2958301,0.389258555 33.7241697,1.16777567 C32.1525093,1.94629278 30.8208724,3.09410646 29.7292589,4.61121673 C28.6376454,6.128327 27.9142871,7.99809886 27.5591839,10.2205323 C27.1777767,12.5361217 27.3060084,14.4957224 27.943879,16.0993346 C28.5817495,17.7029468 29.5977392,18.9206274 30.991848,19.7523764 C32.3859568,20.5841255 34.029953,21 35.9238367,21 Z M36.1211162,16.1692015 C34.8585271,16.1692015 33.9576172,15.7283745 33.4183864,14.8467205 C32.8791557,13.9650665 32.7673639,12.6359316 33.0830112,10.8593156 C33.3789305,8.96292776 34.0020051,7.48407795 34.9522349,6.42276616 C35.9024647,5.36145437 37.107514,4.83079848 38.5673826,4.83079848 C39.8496997,4.83079848 40.7391017,5.28992395 41.2355885,6.2081749 C41.7320754,7.12642586 41.8422231,8.46387833 41.5660318,10.2205323 C41.2503845,12.1169202 40.6240219,13.582462 39.6869441,14.6171578 C38.7498662,15.6518536 37.5612569,16.1692015 36.1211162,16.1692015 Z M57.3769042,21 C59.1524202,21 60.8194323,20.6173954 62.3779408,19.8521863 C63.9364492,19.0869772 65.2615102,17.9524715 66.3531237,16.4486692 C67.4447372,14.9448669 68.1746715,13.081749 68.5429266,10.8593156 C68.9243338,8.53041825 68.7977461,6.55750951 68.1631635,4.94058935 C67.528581,3.3236692 66.5158793,2.0960076 65.1250585,1.25760456 C63.7342377,0.419201521 62.0984614,0 60.2177297,0 C58.4290618,0 56.7488977,0.389258555 55.1772373,1.16777567 C53.6055769,1.94629278 52.2739399,3.09410646 51.1823264,4.61121673 C50.0907129,6.128327 49.3673546,7.99809886 49.0122514,10.2205323 C48.6308443,12.5361217 48.759076,14.4957224 49.3969465,16.0993346 C50.034817,17.7029468 51.0508067,18.9206274 52.4449155,19.7523764 C53.8390243,20.5841255 55.4830206,21 57.3769042,21 Z M57.5741838,16.1692015 C56.3115947,16.1692015 55.4106847,15.7283745 54.871454,14.8467205 C54.3322232,13.9650665 54.2204315,12.6359316 54.5360787,10.8593156 C54.8319981,8.96292776 55.4550726,7.48407795 56.4053025,6.42276616 C57.3555323,5.36145437 58.5605815,4.83079848 60.0204502,4.83079848 C61.3027672,4.83079848 62.1921692,5.28992395 62.6886561,6.2081749 C63.1851429,7.12642586 63.2952907,8.46387833 63.0190993,10.2205323 C62.703452,12.1169202 62.0770895,13.582462 61.1400116,14.6171578 C60.2029337,15.6518536 59.0143245,16.1692015 57.5741838,16.1692015 Z M78.7905158,20.7205323 L81.3946059,4.75095057 L87.470816,4.75095057 L88.2204782,0.279467681 L70.6625985,0.279467681 L69.9129362,4.75095057 L75.9891463,4.75095057 L73.3850562,20.7205323 L78.7905158,20.7205323 Z M94.4435647,20.960076 C97.0081988,20.960076 99.104294,20.4194392 100.73185,19.3381654 C102.359407,18.2568916 103.340872,16.7081749 103.676247,14.6920152 C103.932711,13.134981 103.653232,11.8208175 102.837809,10.7495247 C102.022387,9.67823194 100.539503,8.90304183 98.3891556,8.42395437 L98.3891556,8.42395437 L96.8109192,8.06463878 C94.9827954,7.67205323 94.1805253,7.01996198 94.4041087,6.10836502 C94.4830206,5.64923954 94.73784,5.27495247 95.168567,4.9855038 C95.599294,4.69605513 96.2388085,4.5513308 97.0871106,4.5513308 C97.9748686,4.5513308 98.6061631,4.73930608 98.9809943,5.11525665 C99.3558254,5.49120722 99.513649,6.00855513 99.4544652,6.66730038 L99.4544652,6.66730038 L104.702101,6.66730038 C104.925685,5.32319392 104.795809,4.15209125 104.312474,3.1539924 C103.829139,2.15589354 103.036733,1.38070342 101.935255,0.828422053 C100.833778,0.276140684 99.4676171,0 97.8367729,0 C96.2322326,0 94.7707199,0.27115019 93.4522349,0.81345057 C92.1337499,1.35575095 91.0487124,2.11430608 90.1971224,3.08911597 C89.3455323,4.06392586 88.8145216,5.20342205 88.60409,6.50760456 C88.3476266,8.10456274 88.6566979,9.3621673 89.5313039,10.2804183 C90.4059099,11.1986692 91.7013789,11.8574144 93.417711,12.256654 L93.417711,12.256654 L95.3510506,12.6958175 C96.4360881,12.9353612 97.1808184,13.2131654 97.5852415,13.52923 C97.9896645,13.8452947 98.1524202,14.2328897 98.0735083,14.6920152 C97.9945965,15.1910646 97.7036092,15.6019487 97.2005463,15.9246673 C96.6974835,16.2473859 96.0020731,16.4087452 95.1143151,16.4087452 C94.0687335,16.4087452 93.2845473,16.164211 92.7617565,15.6751426 C92.2389657,15.1860741 92.0367542,14.4724335 92.1551219,13.5342205 L92.1551219,13.5342205 L86.9469418,13.5342205 C86.6707505,15.2376426 86.8039142,16.6366445 87.3464329,17.7312262 C87.8889517,18.825808 88.7701337,19.6375951 89.9899789,20.1665875 C91.2098241,20.6955798 92.6943527,20.960076 94.4435647,20.960076 Z M115.068058,20.7205323 L117.672148,4.75095057 L123.748358,4.75095057 L124.49802,0.279467681 L106.940141,0.279467681 L106.190478,4.75095057 L112.266688,4.75095057 L109.662598,20.7205323 L115.068058,20.7205323 Z M128.038105,20.7205323 L129.152734,13.973384 L131.046618,13.973384 L133.483021,20.7205323 L139.440863,20.7205323 L136.590173,13.095057 C137.754123,12.5693916 138.719149,11.8141635 139.485251,10.8293726 C140.251353,9.84458175 140.749484,8.64353612 140.979643,7.22623574 C141.216379,5.7756654 141.107875,4.53136882 140.654132,3.49334601 C140.200389,2.45532319 139.457303,1.6601711 138.424873,1.10788973 C137.392444,0.555608365 136.126567,0.279467681 134.627242,0.279467681 L134.627242,0.279467681 L125.907486,0.279467681 L122.553734,20.7205323 L128.038105,20.7205323 Z M131.786416,9.66159696 L129.862941,9.66159696 L130.681651,4.71102662 L132.614991,4.71102662 C133.561932,4.71102662 134.273783,4.91064639 134.750542,5.30988593 C135.227301,5.70912548 135.396632,6.34790875 135.258536,7.22623574 C135.120441,8.10456274 134.748898,8.73003802 134.143907,9.1026616 C133.538916,9.47528517 132.753086,9.66159696 131.786416,9.66159696 L131.786416,9.66159696 Z M145.979597,20.7205323 L147.794568,16.8079848 L154.452753,16.8079848 L154.975544,20.7205323 L160.89393,20.7205323 L157.579634,0.279467681 L150.083011,0.279467681 L140.06121,20.7205323 L145.979597,20.7205323 Z M153.90037,12.6558935 L149.718044,12.6558935 L152.844925,5.90874525 L153.002749,5.90874525 L153.90037,12.6558935 Z M167.6694,20.7205323 L168.675525,14.6520913 L171.693902,14.6520913 C173.245835,14.6520913 174.648164,14.3643061 175.900889,13.7887357 C177.153614,13.2131654 178.186043,12.3913973 178.998178,11.3234316 C179.810312,10.2554658 180.334747,8.98288973 180.571482,7.50570342 C180.808217,6.05513308 180.703002,4.78754753 180.255835,3.70294677 C179.808668,2.61834601 179.072157,1.77661597 178.046304,1.17775665 C177.02045,0.578897338 175.757861,0.279467681 174.258536,0.279467681 L174.258536,0.279467681 L165.53878,0.279467681 L162.185028,20.7205323 L167.6694,20.7205323 Z M171.299343,10.3403042 L169.385732,10.3403042 L170.312946,4.71102662 L172.246285,4.71102662 C173.212955,4.71102662 173.923161,4.95722433 174.376904,5.44961977 C174.830647,5.94201521 174.988471,6.62737643 174.850375,7.50570342 C174.712279,8.38403042 174.332516,9.07604563 173.711086,9.58174905 C173.089655,10.0874525 172.285741,10.3403042 171.299343,10.3403042 L171.299343,10.3403042 Z M192.741464,21 C194.392036,21 195.878208,20.6872624 197.199981,20.0617871 C198.521754,19.4363118 199.606792,18.5746198 200.455094,17.476711 C201.303396,16.3788023 201.836051,15.1178707 202.053058,13.6939163 C202.270066,12.4030418 202.187866,11.2585551 201.806459,10.2604563 C201.425052,9.26235741 200.810197,8.48051331 199.961895,7.91492395 C199.113593,7.3493346 198.087739,7.06653992 196.884334,7.06653992 C195.865056,7.06653992 194.93291,7.27115019 194.087896,7.68037072 C193.242882,8.08959125 192.609944,8.60361217 192.189081,9.22243346 L192.189081,9.22243346 L192.070713,9.22243346 L193.214934,4.71102662 L202.289794,4.71102662 L203,0.279467681 L189.427167,0.279467681 L186.783621,11.5380228 L191.439418,12.4961977 C191.761642,11.9971483 192.189081,11.6062262 192.721736,11.3234316 C193.25439,11.0406369 193.813349,10.8992395 194.398612,10.8992395 C195.233762,10.8992395 195.873276,11.1670627 196.317155,11.7027091 C196.761034,12.2383555 196.910638,12.9553232 196.765966,13.8536122 C196.614719,14.7519011 196.231668,15.4688688 195.616813,16.0045152 C195.001958,16.5401616 194.267092,16.8079848 193.412214,16.8079848 C192.688856,16.8079848 192.103593,16.5967205 191.656426,16.174192 C191.209259,15.7516635 191.031707,15.1910646 191.123771,14.4923954 L191.123771,14.4923954 L185.797223,14.4923954 C185.60652,15.756654 185.774207,16.8778517 186.300286,17.8559886 C186.826365,18.8341255 187.645075,19.6026616 188.756417,20.161597 C189.867758,20.7205323 191.196107,21 192.741464,21 Z" id="BOOTSTRAP5"></path><path d="M17.4397963,64.5714286 C20.1172754,64.5714286 22.5052973,64.125 24.603862,63.2321429 C26.7024267,62.3392857 28.4090181,61.1130952 29.7236362,59.5535714 C31.0382543,57.9940476 31.8644134,56.2142857 32.2021135,54.2142857 C32.4915707,52.5 32.3589028,50.9970238 31.8041098,49.7053571 C31.2493169,48.4136905 30.3809453,47.4017857 29.198995,46.6696429 C28.0170448,45.9375 26.6300624,45.547619 25.0380478,45.5 L25.0380478,45.5 L25.1104121,45.1428571 C27.3175232,44.7142857 29.2020102,43.7738095 30.763873,42.3214286 C32.3257358,40.8690476 33.287578,39.1428571 33.6493995,37.1428571 C34.1197674,34.3571429 33.3900941,32.1369048 31.4603794,30.4821429 C29.5306647,28.827381 26.4491516,28 22.2158401,28 L22.2158401,28 L6.1509655,28 L0,64.5714286 L17.4397963,64.5714286 Z M17.8739821,42.7857143 L13.749217,42.7857143 L14.9070458,35.7857143 L19.1765395,35.7857143 C20.4067326,35.7857143 21.3866658,36.0833333 22.1163392,36.6785714 C22.8460125,37.2738095 23.1203938,38.1428571 22.9394831,39.2857143 C22.7585723,40.3928571 22.1947338,41.2529762 21.2479676,41.8660714 C20.3012013,42.4791667 19.1765395,42.7857143 17.8739821,42.7857143 L17.8739821,42.7857143 Z M16.1372389,56.6428571 L11.4335594,56.6428571 L12.6637525,48.9285714 L17.5121606,48.9285714 C19.067993,48.9285714 20.2228067,49.2738095 20.9766015,49.9642857 C21.7303962,50.6547619 21.9987472,51.6428571 21.7816543,52.9285714 C21.4077721,55.4047619 19.5263003,56.6428571 16.1372389,56.6428571 L16.1372389,56.6428571 Z M48.7534603,65 C51.9857323,65 54.8863347,64.5089286 57.4552673,63.5267857 C60.0242,62.5446429 62.128795,61.0982143 63.7690525,59.1875 C65.40931,57.2767857 66.4585923,54.9285714 66.9168995,52.1428571 L66.9168995,52.1428571 L70.9693003,28 L60.983027,28 L57.0029905,51.7142857 C56.7858976,53.0714286 56.0682849,54.172619 54.8501525,55.0178571 C53.6320201,55.8630952 52.0822181,56.2857143 50.2007463,56.2857143 C48.3554566,56.2857143 46.9835501,55.8630952 46.0850267,55.0178571 C45.1865033,54.172619 44.8457881,53.0714286 45.062881,51.7142857 L45.062881,51.7142857 L49.0429175,28 L38.9842798,28 L34.931879,52.1428571 C34.2444181,56.3214286 35.1550022,59.5089286 37.6636313,61.7053571 C40.1722604,63.9017857 43.86887,65 48.7534603,65 Z M78.4751096,64.5714286 L81.7315031,45.3571429 L81.948596,45.3571429 L92.079598,64.5714286 L100.473857,64.5714286 L106.624822,28 L96.5661846,28 L93.3821554,47.1428571 L93.0926982,47.1428571 L83.1064248,28 L74.5674374,28 L68.4164719,64.5714286 L78.4751096,64.5714286 Z M118.544854,64.5714286 C122.307797,64.5714286 125.669722,63.8690476 128.630628,62.4642857 C131.591534,61.0595238 134.027799,59.0297619 135.939422,56.375 C137.851046,53.7202381 139.120437,50.5238095 139.747594,46.7857143 C140.398872,42.9047619 140.18781,39.5595238 139.114406,36.75 C138.041002,33.9404762 136.225865,31.7797619 133.668993,30.2678571 C131.112121,28.7559524 127.928091,28 124.116905,28 L124.116905,28 L110.222959,28 L104.071994,64.5714286 L118.544854,64.5714286 Z M119.196133,56.1428571 L115.541735,56.1428571 L118.870493,36.4285714 L122.597255,36.4285714 C124.526969,36.4285714 126.100893,36.6934524 127.319025,37.2232143 C128.537158,37.7529762 129.363317,38.6934524 129.797503,40.0446429 C130.231688,41.3958333 130.243749,43.3095238 129.833685,45.7857143 C129.399499,48.4047619 128.696962,50.4672619 127.726074,51.9732143 C126.755187,53.4791667 125.549115,54.5505952 124.107859,55.1875 C122.666604,55.8244048 121.029362,56.1428571 119.196133,56.1428571 L119.196133,56.1428571 Z M165.272114,64.5714286 L166.647035,56.5714286 L151.667625,56.5714286 L156.443669,28 L146.385031,28 L140.234066,64.5714286 L165.272114,64.5714286 Z M194.77667,64.5714286 L196.151592,56.5714286 L179.580167,56.5714286 L180.593267,50.2857143 L195.862135,50.2857143 L197.237056,42.2857143 L181.968189,42.2857143 L182.981289,36 L199.625078,36 L201,28 L174.297573,28 L168.146608,64.5714286 L194.77667,64.5714286 Z" id="BUNDLE"></path></g><g id="Group" transform="translate(76.960000, 0.000000)" fill="#7952B3"><path d="M25.3894619,0 C39.4116745,0 50.7789239,11.1749726 50.7789239,24.96 C50.7789239,38.7450273 39.4116745,49.92 25.3894619,49.92 C11.3672493,49.92 4.41128015e-14,38.7450273 4.41128015e-14,24.96 C4.41128015e-14,11.1749726 11.3672493,0 25.3894619,0 Z M25.8670229,12.2117168 L15.240297,26.6027901 C15.1161321,26.7710551 15.0982345,26.9941166 15.1933157,27.1795402 C15.2889562,27.3660705 15.4819152,27.4828598 15.6922125,27.4828598 L24.575596,27.4828598 L23.5263467,36.8315223 C23.4983816,37.0805988 23.6432407,37.3174979 23.8792658,37.4082724 C23.9452634,37.4337334 24.0134982,37.4459105 24.0817329,37.4459105 C24.256235,37.4459105 24.4257033,37.365099 24.5336484,37.2189745 L35.1603743,22.827901 C35.2845392,22.6596361 35.3024368,22.4365745 35.2073555,22.251151 C35.111715,22.0646206 34.9187561,21.9478315 34.7084587,21.9478315 L25.8250753,21.9478315 L26.8743246,12.5991688 C26.9022897,12.3500925 26.7574306,12.1131933 26.5214054,12.0224188 C26.2848211,11.9305374 26.0169156,12.0091348 25.8670229,12.2117168 Z" id="Combined-Shape"></path></g></g></g></g></g></svg>