<svg xmlns="http://www.w3.org/2000/svg" xmlns:xlink="http://www.w3.org/1999/xlink" width="501px" height="35px" viewBox="0 0 501 35"><title>Group 80</title><g id="Templates" stroke="none" stroke-width="1" fill="none" fill-rule="evenodd"><g id="Group-80" fill="#000000"><g id="google-2015" transform="translate(0.000000, 1.800000)"><path d="M12.1345828,0 L13.007949,0 C16.0400128,0.0659144295 19.0226407,1.28533138 21.1648597,3.44402894 C20.3738865,4.2514807 19.5664347,5.02597525 18.7919402,5.83342701 C17.5890019,4.74583893 16.1388844,3.90542995 14.5569381,3.60881502 C12.2169759,3.1144568 9.69574893,3.55937919 7.73479465,4.89414639 C5.59257569,6.29482802 4.14245824,8.66774748 3.8293647,11.205453 C3.48331394,13.7102013 4.19189406,16.3467785 5.82327619,18.2912542 C7.38874389,20.186294 9.77814196,21.3727538 12.2499331,21.4551468 C14.5569381,21.5869757 16.9628148,20.8783956 18.6436327,19.263492 C19.9619213,18.1264681 20.5716298,16.3962143 20.7693731,14.7153964 C18.0339243,14.7153964 15.2984754,14.731875 12.5630266,14.7153964 L12.5630266,11.3208033 L24.0815732,11.3208033 C24.674803,14.9625755 23.8179155,19.0657487 21.0495094,21.6693687 C19.2039054,23.5149727 16.6497212,24.6025608 14.0461013,24.8167827 C11.5248743,25.0639618 8.92125438,24.5860822 6.68016378,23.3666653 C3.99415077,21.9330264 1.85193181,19.5106711 0.79730094,16.6598721 C-0.191415503,14.0397735 -0.207894111,11.0736242 0.714907903,8.43704698 C1.55531688,6.0311703 3.1702204,3.90542995 5.24652493,2.42235529 C7.24043643,0.955759228 9.66279171,0.148307466 12.1345828,0 Z" id="Path"></path><path d="M78.2137984,0.856887584 L81.7402204,0.856887584 L81.7402204,24.3883389 C80.5702393,24.3883389 79.3837795,24.4048175 78.2137984,24.3718603 C78.230277,16.5445218 78.2137984,8.7007047 78.2137984,0.856887584 Z" id="Path"></path><path d="M31.9253903,9.01379824 C34.1005665,8.60183305 36.4570073,9.06323406 38.2531755,10.365044 C39.8845577,11.5185466 41.0215816,13.3311934 41.3676323,15.3086263 C41.8125547,17.5991527 41.2522821,20.103901 39.7692074,21.9165478 C38.1707825,23.9434165 35.5506839,25.0310046 32.9964998,24.8662185 C30.6565375,24.7343897 28.3824897,23.5644086 26.9982867,21.6528901 C25.432819,19.5436284 25.053811,16.6433935 25.9106986,14.1716023 C26.7675862,11.5185466 29.1899415,9.49167785 31.9253903,9.01379824 M32.4197485,12.1447336 C31.5299037,12.3754341 30.7059733,12.886271 30.1127435,13.6113297 C28.5143186,15.5228482 28.6131902,18.6373049 30.3764012,20.4169945 C31.3815962,21.4386682 32.8976281,21.9165478 34.2983097,21.6364115 C35.6001197,21.405711 36.7371436,20.5323448 37.3633307,19.3788423 C38.4509188,17.417888 38.1378253,14.7153964 36.4734859,13.1828859 C35.4023764,12.1941695 33.8369087,11.7822043 32.4197485,12.1447336 Z" id="Shape"></path><path d="M49.3927141,9.01379824 C51.8809838,8.53591862 54.599954,9.22802013 56.4620367,10.9747525 C59.4941004,13.6937227 59.8236726,18.7856124 57.2365312,21.9165478 C55.6710635,23.8939807 53.133358,24.9815688 50.6286097,24.8662185 C48.2392116,24.8003041 45.8827707,23.6138444 44.4656105,21.6528901 C42.8671856,19.4941925 42.5211348,16.5280432 43.4274582,14.0068163 C44.3337816,11.4361535 46.7067011,9.47519924 49.3927141,9.01379824 M49.8870723,12.1447336 C48.9972275,12.3754341 48.1732972,12.886271 47.5800673,13.5948511 C45.998121,15.4734123 46.0640354,18.5384333 47.761332,20.3346015 C48.766527,21.405711 50.3319947,21.9330264 51.7821122,21.6364115 C53.0674436,21.3892324 54.2209461,20.5323448 54.8471332,19.3788423 C55.9182426,17.4014094 55.6051491,14.6989178 53.9243311,13.1664073 C52.8532217,12.1776909 51.287754,11.7822043 49.8870723,12.1447336 Z" id="Shape"></path><path d="M64.2069821,9.96955747 C66.102022,8.78309773 68.6232489,8.45352559 70.6665962,9.47519924 C71.3092619,9.75533557 71.8365774,10.2332152 72.3474142,10.7110948 C72.3638928,10.2661724 72.3474142,9.80477139 72.3638928,9.34337039 C73.4679595,9.35984899 74.5720262,9.34337039 75.6925715,9.35984899 L75.6925715,23.8939807 C75.6760929,26.0856355 75.1158202,28.4091191 73.5338739,30.007544 C71.8036202,31.770755 69.1505644,32.3145491 66.7611663,31.9520197 C64.2069821,31.5730117 61.9823702,29.7109291 60.9936537,27.3544883 C61.9823702,26.8766086 63.0205224,26.4976007 64.0421961,26.0526783 C64.6189473,27.4039241 65.7889285,28.5574266 67.2555245,28.8210843 C68.7221206,29.084742 70.4194171,28.7222127 71.3751764,27.5027957 C72.39685,26.2504216 72.39685,24.5366464 72.3474142,23.0041359 C71.5893983,23.7456732 70.7160321,24.4048175 69.6614012,24.6519966 C67.3708748,25.2946623 64.8496478,24.5036892 63.0864368,22.9547001 C61.3067472,21.405711 60.2521164,19.0163129 60.350988,16.6433935 C60.4004238,13.9573805 61.9164557,11.3702391 64.2069821,9.96955747 M67.6180539,12.0788192 C66.6128588,12.2436053 65.6735782,12.8038779 65.0309125,13.5783725 C63.4819234,15.4239765 63.4819234,18.3736472 65.0473911,20.186294 C65.9372359,21.2574035 67.3708748,21.8506334 68.7550778,21.7023259 C70.0568878,21.5704971 71.2598261,20.7465667 71.9024918,19.6095428 C72.9900799,17.6815457 72.8088152,15.0614471 71.3422191,13.3806292 C70.4358957,12.3424769 68.9857783,11.8316401 67.6180539,12.0788192 L67.6180539,12.0788192 Z" id="Shape"></path><path d="M85.9752225,10.8099664 C87.9526554,8.96436242 91.0011978,8.33817534 93.5389033,9.31041317 C95.94478,10.2167366 97.4772905,12.507263 98.251785,14.8637039 C94.6759272,16.3467785 91.116548,17.8133746 87.5406902,19.2964492 C88.0350484,20.2357299 88.7930644,21.0926174 89.814738,21.4386682 C91.2483769,21.949505 92.962152,21.7682404 94.1650904,20.8124811 C94.64297,20.4499518 95.021978,19.9720721 95.3845073,19.5106711 C96.2908307,20.1203796 97.1971541,20.7136095 98.1034775,21.323318 C96.8181462,23.251315 94.6594486,24.6025608 92.3359649,24.8167827 C89.7653022,25.1298763 87.0298534,24.1411598 85.365514,22.1307697 C82.6300652,18.9668771 82.8937229,13.6607655 85.9752225,10.8099664 M87.7384335,13.8585088 C87.1781608,14.6659606 86.9474603,15.654677 86.9639389,16.6269148 C89.353337,15.6381984 91.7427351,14.649482 94.1321332,13.6442869 C93.7366466,12.7214849 92.7808873,12.1612122 91.8086495,12.0129048 C90.2431818,11.7327685 88.6117997,12.5731774 87.7384335,13.8585088 L87.7384335,13.8585088 Z" id="Shape"></path></g><g id="disney" transform="translate(267.800000, 0.000000)"><path d="M41.9286493,4.51236765 C42.4901788,4.53862664 43.0265308,4.7531053 43.4513389,5.12126698 C44.0302345,5.66927638 44.1820181,6.58306661 43.9080134,7.31418704 C42.8428808,9.50666588 40.3097713,10.9711129 38.5788205,11.455585 C37.5432504,11.6991447 36.2341168,11.6991447 35.2898816,11.3338051 C34.8327659,11.6078098 34.4471296,12.4933612 33.8889719,12.1253742 C33.0810772,11.4944133 33.780429,10.5069375 33.3140474,9.806262 C33.217859,9.66197933 32.9756229,9.65138978 32.8538431,9.41533098 C32.2140575,8.01442128 33.0060679,6.67440151 33.8889719,5.60882768 C35.3609199,3.9665644 39.5839456,2.13677778 41.9286493,4.51236765 L41.9286493,4.51236765 Z M37.025686,5.60838645 C36.2032306,5.76061128 35.2744385,6.11844995 34.7723172,6.70484648 C34.2697546,7.29080178 33.9503031,7.86219645 34.2547528,8.47109578 C35.3207678,7.67952665 35.8383323,6.58306661 37.0261272,5.91327735 C37.025686,5.79105625 37.2083558,5.69972135 37.025686,5.60838645 Z M41.9899805,5.91327735 C39.8883953,5.73016631 38.3048158,7.31418704 36.8125712,8.83643538 C36.7212363,9.07999511 36.1732269,9.35399981 36.5994564,9.62800451 C38.6097067,9.81067431 40.5281808,9.23266118 41.9899805,7.89220018 C42.4166512,7.49641561 42.7202184,6.97885118 42.5079861,6.43040055 C42.4166512,6.21772701 42.2017715,6.00461225 41.9899805,5.91327735 Z M60.2000416,14.9880836 C61.1747218,17.3636734 61.9967359,21.1088456 60.2000416,23.3931005 C59.7129222,23.9411099 58.8604631,24.4463199 58.3124537,24.0324448 C56.3022034,22.4188616 55.4501856,20.1041617 54.2015007,18.0330215 C54.0188309,17.9416866 54.0188309,18.1856875 53.927496,18.2770224 C53.4708215,20.3781664 54.3232806,23.1190958 52.8923671,24.763124 C52.3443577,24.8544589 51.8316469,24.5725121 51.6436823,24.0324448 C50.9430068,21.870411 51.6732448,19.616601 51.8559146,17.4545671 C52.2825854,16.3581071 52.4652552,15.0794185 53.4094904,14.2569631 C54.9321799,14.8658625 55.6628591,16.5716631 56.5453219,17.8203479 C57.1855487,18.7641419 57.7026719,19.830157 58.4333511,20.682616 C59.0726954,20.4086113 58.7580974,19.5729191 58.738242,19.0685916 C58.4937998,17.0892275 57.9457904,15.2620883 57.4277847,13.3740591 C57.3982222,12.8869396 57.1242175,12.0644843 57.6408995,11.7600346 C59.0131291,12.3693752 59.5907011,13.8002886 60.2000416,14.9880836 L60.2000416,14.9880836 Z M51.0034555,14.2569631 C51.0034555,14.7140789 50.6381159,15.2850323 50.3327838,15.3534232 C47.4096258,15.8100977 44.1511319,15.536093 41.4106436,16.449442 C41.3193087,16.7843366 41.7150933,16.8452265 41.9282081,16.9365614 C44.2724705,17.301901 46.7398365,17.3932359 49.0240915,17.9721315 C50.2317418,18.2787874 50.6690021,19.7083771 50.760337,20.8957308 C50.8163734,21.8320238 50.4563286,22.9664298 49.5420971,23.6062153 C47.2891696,25.03757 43.8480059,24.9762388 41.5633097,23.6675465 C40.6901127,23.1777796 39.8579503,22.3888579 39.7970604,21.4141777 C39.8023552,20.6402578 40.1323963,20.0309173 40.6804057,19.7392633 C42.8733257,18.855918 45.583369,19.34392 47.4718394,20.4699425 C47.5927368,21.0792831 46.9335371,21.0461907 46.6180566,21.2619529 C44.5164715,22.4801928 42.9333332,19.8923706 40.9844141,20.8352821 C40.7104094,21.0179519 40.5122965,21.5275742 40.8321893,21.6881824 C43.2377829,22.7541975 45.9178224,21.9926321 48.292971,21.3228428 C48.5669757,21.2315079 48.9023116,20.9575032 48.9323153,20.6834985 C48.8409804,19.7088183 47.7449616,19.4961448 47.0442862,19.2221401 C44.9735872,18.7045757 42.6897735,18.7045757 40.4664084,18.4914609 C40.0401789,18.400126 39.497023,18.1031773 39.3703896,17.7607817 C39.1268299,17.0301025 39.1268299,16.0249774 39.6748393,15.416078 C42.5066624,12.9187083 46.8002852,13.1322643 50.3936737,13.8020536 C50.6376747,13.8916235 50.9116794,13.9829584 51.0034555,14.2569631 L51.0034555,14.2569631 Z M37.6959165,15.4143131 C37.9699212,18.3374711 38.122146,21.0483969 38.0612561,24.1237797 C38.0003661,24.5191231 37.5436916,24.6108992 37.239242,24.763124 C36.7521225,24.8544589 36.1224853,24.7507696 35.9296672,24.4891193 C35.2294329,23.3617731 35.4729927,21.839966 35.4121027,20.4695013 C35.5034376,18.3079086 35.4729927,15.9627637 36.0823332,13.9525135 C36.1988183,13.6604183 36.5390077,13.4045041 36.8130124,13.5867326 C37.5436916,13.9525135 37.6654715,14.6836339 37.6959165,15.4143131 L37.6959165,15.4143131 Z M71.5295403,14.9880836 C71.6760291,15.2342907 71.8291364,15.6146322 71.5295403,15.7796527 C70.1590756,16.388552 68.3019326,16.1145473 66.7179119,16.2972171 C66.2916823,16.6625567 65.9563465,17.2714561 66.1081301,17.8199067 C66.2612374,17.9112416 66.3975779,18.0502295 66.565687,18.0325802 C67.5394847,18.0939114 69.0017256,17.5759057 69.6419524,18.4892547 C69.7981483,18.7610533 69.6207733,19.7758855 69.1852779,19.7988295 C67.9970417,19.9519368 66.0432691,19.6496933 65.469227,19.9519368 C64.7385478,20.4390563 64.7989965,21.3828503 64.5249918,22.1448569 C65.0429975,22.4797515 65.5852709,22.1369147 66.199465,22.0530808 C67.3272524,21.870411 68.5759373,21.5355163 69.7019598,21.7790761 C69.9150746,22.1748606 70.2199655,22.6015314 70.0064095,23.0886509 C68.0866117,24.6113404 65.6104211,26.1719759 62.9722985,25.0680149 C61.9821752,24.6241362 61.5409438,23.1190958 61.8762797,21.8408485 C62.0889532,20.9270582 63.0327472,20.0441542 62.4547341,19.069474 C62.3633992,18.6428033 62.6074001,18.2779049 62.9727397,18.18657 C63.9774236,18.18657 63.7638676,16.9378851 64.2818733,16.3589895 C63.7034189,15.7196452 62.2420605,15.7500902 62.3942854,14.4709604 C63.0949608,14.1056208 63.9478611,14.2274006 64.7385478,14.1056208 C66.5352421,13.7398399 68.5450511,13.5267252 70.373514,13.7398399 C70.7375299,13.8130844 71.2250906,14.5314091 71.5295403,14.9880836 Z M28.0422146,8.04486625 C30.8524174,10.3419169 34.4983125,14.2574044 34.041638,18.7641419 C33.4931874,22.3275267 29.717129,25.007125 26.5195251,25.8600253 C23.413256,26.7733743 19.5154178,26.6820394 16.3478176,25.9513602 C16.1347028,26.5302558 15.921588,27.2300488 15.2517988,27.4740498 C14.8255692,27.6262746 14.2771186,27.5349397 13.942224,27.260935 C12.99843,26.3775897 13.7595542,24.6722304 12.3890894,24.1246622 C9.7090499,22.9977572 6.8158956,20.7743922 5.4458721,18.0339039 C5.2632023,17.4858945 5.47631706,16.9378851 5.8112117,16.5116556 C7.91279686,14.8367412 10.5619502,14.1669519 13.2115448,13.6489463 C13.3637696,13.7098362 13.3028797,13.4967214 13.4246595,13.4358315 C13.5768844,11.6086923 13.6377743,9.75066684 14.2162287,8.10619741 C14.3481569,7.87543339 14.6729032,7.80174774 14.8864592,7.95397258 C16.5613736,9.23266118 15.7693632,11.6391372 16.5004836,13.3745003 C19.6980876,13.5267252 22.8956916,13.67895 25.423065,15.4760855 C26.2759653,16.1763197 26.4837853,17.5136921 26.2146342,18.2779049 C25.9459242,19.040794 25.0577254,19.5874797 24.2352701,19.6474872 C23.6868195,19.6474872 22.6516906,19.7008762 22.7125805,19.2825888 C22.7734705,18.8638602 24.5754595,18.1786278 24.0221553,17.6072332 C23.2266151,16.7861015 19.2462666,16.2976584 16.7793419,15.9932087 C16.4748922,15.9323188 16.1955927,16.0236537 16.1955927,16.3585483 C16.1347028,18.672807 15.952033,21.2306254 16.3478176,23.4544317 C16.3782625,23.6070978 16.5609323,23.7897676 16.7135984,23.8193301 C21.0681111,24.5200055 25.6666248,24.1237797 29.0773435,21.6268512 C30.660923,20.3486039 31.1789287,18.5505859 30.9044827,16.5716631 C29.534018,11.0598004 23.7785956,7.73997535 19.0583021,5.60838645 C14.4602296,3.59857741 9.37415526,2.56300731 3.92318253,2.83745325 C3.05528036,2.90099057 1.67996209,3.20058669 1.66981376,3.50768375 C1.65966544,3.8147808 3.22780184,3.71815112 3.03983727,4.29925288 C2.85231392,4.8799134 1.2585861,4.53531168 0.786468499,4.39058778 C0.3143509,4.24586388 0.360238965,3.56813245 0.482018832,3.14190291 C1.66981376,1.04075898 4.98434405,0.870884891 6.4814422,0.797199247 C14.7642381,0.583643248 22.7739117,3.73800654 28.0422146,8.04486625 L28.0422146,8.04486625 Z M13.1202099,16.2063235 C11.0186247,16.2367684 8.7957009,16.4498832 6.8467818,17.1805624 C6.45099723,17.3327872 5.96343653,17.7590168 6.2678862,18.2770224 C7.05945533,19.3425963 8.19165511,20.2175581 9.2523754,20.8348409 C10.3130957,21.4512411 11.7193002,22.2357506 12.99843,22.4188616 C13.3028797,20.4390563 13.3028797,18.4901372 13.2724347,16.4498832 C13.1502136,16.3889933 13.2719935,16.2672134 13.1202099,16.2063235 L13.1202099,16.2063235 Z M76.0662816,13.434949 C75.9749467,16.0841024 73.5075807,17.729013 73.5075807,20.3781664 C73.5989156,20.4695013 73.660688,20.5912811 73.7815854,20.5312737 C75.7618319,18.3687986 77.7103098,15.2929745 80.6034641,14.3796255 C81.3659119,14.3187355 82.0546742,14.9810239 82.3397096,15.4760855 C83.3448348,17.4858945 83.1021575,20.3181589 81.7008066,22.1452981 C80.2548913,23.9389038 77.741196,25.7386867 74.8798103,25.4337958 C73.6924566,28.357395 72.8686776,31.4332191 72.4120031,34.6308231 C72.1684434,35.2701674 71.5904302,34.691713 71.2250906,34.5699332 C68.7586071,32.6210141 70.7838592,27.4616953 70.9510859,26.803378 C71.1183126,26.1468257 71.7783948,24.5981035 72.261102,23.3013244 C71.103752,21.2310667 71.8344312,18.7332557 72.7782252,16.8147816 C73.5089044,15.5356517 74.514912,14.2565219 75.7022657,13.282283 C75.8531668,13.2827242 75.9749467,13.3131692 76.0662816,13.434949 L76.0662816,13.434949 Z M80.9701274,16.7238879 C80.6047878,16.662998 80.4521217,17.1505587 80.1481133,17.2418936 C78.7476448,18.8254731 77.3462939,20.4090526 76.6456184,22.2970817 C77.5902948,22.4188616 78.3814227,21.8099623 79.2043193,21.4750676 C80.6047878,20.5917224 81.488133,19.1308052 81.3967981,17.4554496 C81.335467,17.1805624 81.0919072,16.9674476 80.9701274,16.7238879 Z" id="Shape"></path></g><g id="orange-3" transform="translate(390.200000, 1.800000)"><path d="M8.29102694,24.6087061 C3.93227043,24.6087061 0,21.7143871 0,15.388781 C0,9.06353361 3.93227043,6.1688559 8.29102694,6.1688559 C12.6501274,6.1688559 16.5765508,9.06353361 16.5765508,15.388781 C16.5762069,21.7143871 12.6497834,24.6087061 8.29102694,24.6087061 M8.29102694,10.0567632 C4.9957341,10.0567632 4.39383843,13.1523107 4.39383843,15.388781 C4.39383843,17.6252513 4.9957341,20.7268967 8.29102694,20.7268967 C11.5866637,20.7268967 12.1885594,17.62561 12.1885594,15.388781 C12.1885594,13.151952 11.5866637,10.0567632 8.29102694,10.0567632 M19.6001308,6.62978042 L23.7955156,6.62978042 L23.7955156,8.68331572 C24.5958649,7.57422731 26.5649236,6.27000821 28.4115395,6.27000821 C28.5869491,6.27000821 28.8029437,6.27000821 28.9842002,6.29439955 L28.9842002,10.6148943 L28.7678617,10.6148943 C26.8514259,10.6148943 24.7537335,10.9255252 24.075827,12.4793968 L24.075827,24.100075 L19.6001308,24.100075 L19.6001308,6.62978042 Z M40.6991537,22.5795622 C38.9928655,23.7496289 37.1465935,24.3163688 35.1599938,24.3163688 C32.0339196,24.3163688 30.1814567,22.1469747 30.1814567,19.2340034 C30.1814567,15.3220635 33.6287712,13.2559739 40.7342356,12.421288 L40.7342356,11.4463519 C40.7342356,10.1787199 39.8110996,9.43550149 38.1048114,9.43550149 C36.3985231,9.43550149 35.0138191,10.1424915 34.0143284,11.4463519 L31.0402759,9.67905615 C32.6003895,7.39990099 34.9783933,6.26032342 38.1746313,6.26032342 C42.5454257,6.26032342 44.9994404,8.23494557 44.9994404,11.4463519 C44.9994404,11.4463519 44.9935934,24.078912 44.9994404,24.1094011 L41.0902139,24.1094011 L40.6991537,22.5795622 L40.6991537,22.5795622 Z M34.5230162,18.8989813 C34.5230162,20.0747872 35.2301576,21.1716799 36.5096159,21.1716799 C37.8943199,21.1716799 39.2442859,20.5748096 40.593908,19.3315688 L40.593908,15.1936503 C36.474534,15.7241619 34.5230162,16.8328916 34.5230162,18.8989813 M48.4839004,7.09536799 L52.1358594,6.57131295 L52.5389576,8.64278306 C54.5957211,7.07061795 56.2318455,6.23593208 58.288609,6.23593208 C61.7359235,6.23593208 63.5182225,8.14311936 63.5182225,11.9216243 L63.5182225,24.0846511 L59.1064992,24.0846511 L59.1064992,12.7197232 C59.1064992,10.5804595 58.5747674,9.61807781 56.9792279,9.61807781 C55.6646878,9.61807781 54.3498037,10.2393395 52.8485039,11.5557543 L52.8485039,24.0846511 L48.4839004,24.0846511 L48.4839004,7.09536799 L48.4839004,7.09536799 Z M74.3083203,20.345244 C77.650733,20.3212114 77.9368914,16.7683263 77.9368914,14.458682 C77.9368914,11.7164501 76.6570892,9.50437114 74.2790854,9.50437114 C72.6955839,9.50437114 70.9249788,10.7106662 70.9249788,14.6477148 C70.9253227,16.7991742 71.0714974,20.3757332 74.3083203,20.345244 M82.1732051,6.5673673 L82.1732051,23.1118672 C82.1732051,26.0248384 81.9513636,30.8449969 73.97573,30.8876818 C70.6800932,30.9120731 67.6241829,29.5350387 67.0164402,26.5366978 L71.3641906,25.8053164 C71.5447593,26.6647523 72.0534472,27.5177317 74.5194997,27.5177317 C76.8042957,27.5177317 77.9024974,26.3781541 77.9024974,23.6481179 L77.9024974,21.6128761 L77.8440275,21.5518978 C77.142733,22.861856 76.0792694,24.0993576 73.520009,24.0993576 C69.6111265,24.0993576 66.5376752,21.2717561 66.5376752,15.3665419 C66.5376752,9.52266464 69.7105253,6.25027992 73.2685885,6.24414723 C76.6165043,6.23808426 77.8498745,7.82854286 78.1422238,8.66322874 L78.0837539,8.6571309 L78.4517702,6.5670086 L82.1732051,6.5670086 L82.1732051,6.5673673 Z M92.7153219,24.4193146 C87.7784016,24.4193146 84.8332401,21.104245 84.8332401,15.3575745 C84.8332401,9.54418641 87.8131396,6.23521469 92.645158,6.23521469 C97.4775205,6.23521469 100.352174,9.44662107 100.352174,15.1258568 C100.352174,15.4307485 100.317092,15.7291836 100.317092,16.0279775 L89.1624177,16.0279775 C89.1916526,19.3430471 90.5120398,21.0124188 93.1063821,21.0124188 C94.7717415,21.0124188 95.876134,20.3118853 96.9107067,18.7763072 L100.135836,20.6408096 C98.7163937,23.1211933 96.1571333,24.4193146 92.7153219,24.4193146 M96.0226526,13.0482888 C96.0226526,10.7142532 94.7370035,9.33721875 92.645158,9.33721875 C90.6527114,9.33721875 89.4079911,10.683764 89.2329255,13.0482888 L96.0226526,13.0482888 Z M107.899946,0.000358696122 L106.275516,4.38183183 L104.622194,0.000358696122 L103.208255,0.000358696122 L103.208255,5.77715974 L104.1252,5.77715974 L104.1252,0.957001253 L104.148588,0.957001253 L105.965625,5.77715974 L106.54998,5.77715974 L108.355667,0.957001253 L108.384558,0.957001253 L108.384558,5.77715974 L109.296,5.77715974 L109.296,0.000358696122 L107.899946,0.000358696122 L107.899946,0.000358696122 Z M97.7041772,0.000358696122 L97.7041772,0.768327093 L99.4338534,0.768327093 L99.4338534,5.77751844 L100.350798,5.77751844 L100.350798,0.767968397 L102.086666,0.767968397 L102.086666,0 L97.7041772,0 L97.7041772,0.000358696122 Z" id="Shape"></path></g><g id="coca-cola" transform="translate(138.400000, 2.700000)"><path d="M34.5610125,25.7072625 C31.2121125,23.5499625 26.667225,23.1714 19.337625,25.20495 C11.5237125,27.041175 8.9184375,28.2182625 5.496975,25.8553125 C4.182525,24.6945375 3.7112625,22.825575 4.0631625,20.13345 C4.87935,15.744825 7.085025,11.5214625 11.00295,6.8367375 C13.189725,4.3997625 15.218325,2.3083875 17.8968375,1.468575 C19.9497375,0.9417375 19.7578125,2.5551 19.5094125,2.7858375 C19.2472875,2.7858375 18.8069625,2.827125 18.46665,3.0492 C18.1904625,3.2634 17.432325,3.95505 17.3916,4.885425 C17.332875,6.309675 18.8067375,6.0132375 19.442475,5.23125 C20.1277125,4.3500375 21.1404375,2.6625375 20.343825,1.0897875 C20.009925,0.5299875 19.433025,0.1431 18.7167375,0.0113625 C16.2640125,-0.1288125 13.9798125,1.0404 11.8715625,2.333025 C7.2610875,5.5357875 3.573,9.9736875 1.486125,14.8314375 C0.28305,17.7624 -0.80505,21.9609 0.8258625,25.3780875 C2.0876625,27.7491375 4.707,29.008575 7.8321375,28.7452125 C10.023975,28.514925 12.6743625,27.8065125 14.456925,27.3787875 C16.2396,26.950275 25.36425,23.813775 28.362375,29.2728375 C28.362375,29.2728375 29.35935,27.3375 31.8508875,27.2962125 C33.8992875,27.1072125 36.8544375,27.8892 39.0063375,29.4697125 C38.289375,28.3915125 36.256725,26.80245 34.5610125,25.7072625 Z" id="Path"></path><path d="M20.268,7.388325 C18.561375,6.2686125 15.13125,8.4092625 12.3838875,12.08115 C9.8715375,15.3748125 8.7867,19.20285 9.9673875,20.9730375 C11.7235125,23.055975 14.983875,20.0262375 16.370325,18.40455 L16.5492,18.2149875 C17.4920625,17.2022625 18.2203875,15.9836625 18.9255375,14.8143375 C18.9255375,14.8143375 19.5735375,13.7440125 19.604475,13.6945125 C20.004975,13.6207125 20.487375,13.5054 21.030975,13.3489125 C21.0232125,13.3734375 18.9511875,16.8562125 19.162575,18.5848875 C19.2283875,19.1122875 19.1782125,21.03885 21.0591,21.6232875 C23.56605,22.043475 25.567875,20.10015 27.3339,18.3711375 C27.3339,18.3711375 27.6348375,18.08325 27.80505,17.9188875 C27.7619625,18.0912375 27.705825,18.3213 27.705825,18.3213 C26.971875,20.8737 27.9612,21.4093125 28.5800625,21.6068625 C30.450375,22.1506875 32.6847375,19.433475 32.69205,19.433475 C32.634,20.289375 32.4646875,20.9973375 33.3669375,21.565575 C34.21845,21.87045 35.0803125,21.4056 35.7355125,20.9692125 C38.0952,19.3062375 39.996225,16.7032125 41.531625,14.453325 L40.5522,14.453325 C40.5406125,14.453325 38.135475,17.939475 36.5736375,18.6971625 C36.5711625,18.6971625 36.286875,18.843075 36.1231875,18.72765 C35.92035,18.5547375 36.0003375,18.195075 36.12555,17.940375 C36.133425,17.9238375 42.156,7.478325 42.156,7.478325 L39.31245,7.478325 C39.31245,7.478325 39.0018375,7.9808625 38.976525,8.013825 C38.9574,7.9974 38.9118375,7.911 38.8803375,7.8696 C37.1185875,5.432625 33.129,9.181125 30.1253625,13.528125 C28.968975,15.19965 27.4966875,17.0816625 25.9700625,18.4401 C25.9700625,18.4401 23.7083625,20.51325 22.7421,19.02375 C22.38885,18.3979125 22.497525,17.48295 22.6967625,16.8820875 C23.821875,13.6792125 25.7605875,10.77255 27.966825,9.0187875 C28.5895125,8.53335 29.2665375,8.39295 29.60235,8.598825 C29.922525,8.7885 29.9741625,9.2574 29.7716625,9.5785875 C29.257875,9.5621625 28.846125,9.7183125 28.51155,10.0641375 C27.8523,10.7557875 27.62325,11.4228 27.8328375,12.0486375 C28.851075,13.4976375 30.8818125,10.632375 30.7836,8.8869375 C30.7485,8.2611 30.4147125,7.66845 29.9163375,7.38 C29.173725,6.935625 28.04085,7.0507125 27.3076875,7.404975 C26.326125,7.775325 24.7726125,9.0678375 23.86575,10.0724625 C22.7241,11.33235 20.7660375,12.73185 20.1538125,12.5751375 C20.35395,12.0398625 22.0078125,8.6560875 20.268,7.388325 L20.268,7.388325 Z M33.9773625,12.394125 C34.530525,11.6285625 36.1405125,9.5783625 36.533025,9.23265 C37.8531,8.0713125 38.380725,8.5822875 38.4264,8.9443125 C37.1944125,11.150775 35.74035,13.6785375 34.37325,15.9510375 C34.3760625,15.9429375 33.9454125,16.6014 33.9454125,16.6014 C33.341625,17.523225 32.733675,18.3137625 31.7419875,18.8652375 C31.600575,18.90675 31.367475,18.9232875 31.2123375,18.807525 C31.0255875,18.684 30.9519,18.478125 30.9729375,18.2640375 C31.03245,17.5561875 31.753125,15.3912375 33.9773625,12.394125 L33.9773625,12.394125 Z M18.50805,13.7196 C18.50805,13.7196 18.4831875,13.7939625 18.4710375,13.8182625 C18.4678875,13.8182625 17.231175,15.8351625 17.231175,15.8351625 C16.48485,16.831575 15.5530125,18.0833625 14.3881875,18.6841125 C14.042925,18.7993125 13.5655875,18.873675 13.3223625,18.56925 C12.806775,17.951625 13.0725,17.095275 13.2883875,16.40385 L13.3648875,16.1568 C13.9838625,14.4774 14.965875,12.9951 15.9219,11.620125 C15.933825,11.612025 15.9606,11.6038125 15.970275,11.6038125 C15.9726375,11.612025 15.9764625,11.612025 15.9780375,11.6285625 C16.5778875,12.7810125 17.7026625,13.31595 18.543825,13.5633375 C18.5488875,13.5633375 18.5544014,13.57155 18.5544014,13.5880875 C18.5545125,13.6126125 18.5407875,13.6458 18.50805,13.7196 L18.50805,13.7196 Z M19.679625,11.34045 C19.6741125,11.356875 19.128825,12.608325 19.128825,12.608325 C19.0499625,12.6741375 18.9253125,12.6412875 18.7824375,12.608325 L18.5376375,12.566925 C17.768925,12.3283125 17.1891,11.8177875 17.0103375,11.2086 C16.76385,10.0229625 17.7766875,9.0925875 18.2228625,8.7552 C18.6510375,8.4585375 19.3167,8.3021625 19.70325,8.606925 C19.9416375,8.8869375 20.0319752,9.249075 20.0319752,9.6445125 C20.0320875,10.17945 19.8669375,10.780425 19.679625,11.34045 Z M55.627875,15.1603875 C55.3536,14.5677375 54.7027875,14.18895 54.0091125,14.2300125 C51.756525,14.436 49.5532125,16.288425 48.3962625,18.9475875 C47.7892125,20.3144625 47.4579,21.442275 47.2406625,23.2371 C47.9412,22.430475 49.36995,21.105 50.9913,20.3803875 C50.9913,20.3803875 51.2119125,18.6597 52.3369125,17.1282375 C52.7626125,16.494075 53.6144625,15.47325 54.57105,15.744825 C55.406925,16.0248375 55.113075,18.3385125 54.00225,20.5774875 C53.180325,22.224375 51.922575,23.8714875 50.649975,25.0074 C49.5248625,25.9624125 47.8602,27.1150875 46.403775,26.226 C45.48645,25.68285 45.0185625,24.5462625 45.1173375,23.0808375 C45.5556375,18.923175 47.4483375,15.3828 50.156775,11.34855 C52.949475,7.6024125 56.027925,3.7575 60.1750125,1.707075 C61.0209,1.2790125 61.8042375,1.1802375 62.481375,1.4437125 C62.481375,1.4437125 58.588425,3.5843625 56.7327375,7.5447 C56.2606875,8.549325 55.6041375,9.907425 56.2653,11.1096 C56.6107875,11.7352125 57.2241375,11.7847125 57.718125,11.75175 C59.9927625,11.2246875 61.46235,9.100575 62.6630625,7.1577 C63.3592125,5.68395 63.9779625,4.2184125 63.9779625,2.588175 C63.9779625,2.390625 63.967725,2.1272625 63.951075,1.9294875 C65.0377125,1.353375 67.266225,2.3740875 67.266225,2.3740875 C69.0076125,2.95065 72.7155,5.791275 73.966275,6.334425 C74.5763625,5.6264625 75.5789625,4.55625 76.1436,4.020975 L75.3262875,3.5186625 C74.0179125,2.720025 72.63495,1.96245 71.2738125,1.2133125 C68.182425,-0.4743 65.666025,0.11835 64.3854375,0.5794875 C63.8821125,0.7605 63.4222125,0.9169875 63.4222125,0.9169875 C62.4718125,-0.120375 60.9130125,-0.021825 59.7645,0.2583 C55.634175,1.443825 51.7993875,4.3336125 47.688075,9.34785 C44.665425,13.275225 42.7905,16.6674375 41.7911625,20.01825 C41.020875,22.2741 40.7867625,25.5920625 42.6668625,27.5599125 C44.265375,29.230875 46.3849875,28.86885 47.8816875,28.2681 C51.124725,26.670825 54.0394875,23.2291125 55.4918625,19.268775 C55.8424125,18.091575 56.231325,16.4284875 55.627875,15.1603875 L55.627875,15.1603875 Z M63.0851625,2.7529875 C62.6558625,7.67655 58.828725,10.566675 57.8817,10.79685 C57.3078375,10.9119375 56.3286375,10.6569 57.202875,8.5906125 C58.4901,5.807475 60.6880125,3.44475 63.0460125,2.2343625 C63.1035,2.4402375 63.101925,2.5716375 63.0851625,2.7529875 L63.0851625,2.7529875 Z M85.7874375,3.3784875 C83.7288,4.5478125 81.594675,5.30505 79.01145,5.0416875 C78.2956125,5.8487625 77.59845,6.68025 76.9559625,7.536375 C80.581725,8.4585375 84.4255125,6.40845 86.5693125,4.4573625 C88.8372,2.4895125 90,0.011475 90,0.011475 C90,0.011475 88.300125,1.95435 85.7874375,3.3784875 Z M46.8820125,7.47855 L44.1815625,7.47855 L42.6583125,9.95355 L45.3582,9.95355 L46.8820125,7.47855 Z" id="Shape"></path><path d="M79.00065,25.936425 C78.7102875,26.133975 78.3023625,25.9821 78.4548,25.5294 C78.834825,24.376725 80.34525,22.027725 80.34525,22.027725 L84.5523,14.56605 L81.6706125,14.56605 C81.5335875,14.79105 81.24075,15.30765 81.24075,15.30765 C81.1074375,15.085575 80.7087375,14.5918125 80.5446,14.48505 C79.840575,14.0401125 78.8077125,14.2504875 78.0951375,14.6538 C74.997,16.4653875 72.7365375,20.044575 70.95375,22.8358125 C70.95375,22.8358125 69.0771375,25.9385625 68.0355,26.1693 C67.2222375,26.235225 67.3061625,25.1397 67.341375,24.8844375 C67.6558125,23.0398875 68.38605,21.28635 69.1216875,19.6972875 C70.6181625,18.659925 72.3258,17.3014875 73.8777375,15.8113125 C77.2457625,12.5917875 80.08515,8.944425 80.5001625,8.1293625 C80.5001625,8.1293625 80.05095,8.2200375 79.5205125,8.23635 C76.9294125,11.85075 71.6270625,17.103825 70.01955,17.8858125 C70.731675,16.1728875 75.3327,7.9975125 79.247925,4.0867875 L79.8640875,3.4938 C80.81685,2.563425 81.803925,1.6084125 82.5732,1.451925 C82.654425,1.4437125 82.75905,1.451925 82.8493875,1.6416 C82.8837,2.3659875 82.6140375,2.9012625 82.3046625,3.51045 L81.8710875,4.3997625 C81.8710875,4.3997625 82.485225,4.28445 82.88865,4.152375 C83.3565375,3.2718375 83.8749375,2.283525 83.6838,1.1064375 C83.620125,0.72765 83.34585,0.4395375 82.9875375,0.3736125 C81.8195625,0.1513125 80.5467375,1.0155375 79.522425,1.715625 L79.4811375,1.74015 C74.2159125,5.865075 69.770025,11.809575 65.882925,19.9276875 C65.601225,20.1414375 64.5127875,20.396925 64.3278375,20.2732875 C64.7116875,19.4830875 65.1949875,18.42075 65.43675,17.268075 C65.4786,16.9385625 65.517525,16.6012875 65.517525,16.272 C65.517525,15.5633625 65.347425,14.8966875 64.7127,14.4358875 C63.9684,14.0653125 63.0484875,14.2383375 62.4281625,14.5180125 C59.64975,15.6706875 57.5731125,18.5196375 56.0745,20.865825 C55.26855,22.35645 54.4649625,23.9529375 54.2424375,25.7810625 C54.085725,27.2134125 54.404775,28.1356875 55.219275,28.596825 C56.056725,29.0246625 57.11085,28.57995 57.5249625,28.3660875 C60.339825,26.8840125 62.3066625,23.9119875 63.8569125,21.1948875 C63.9185625,21.1867875 64.7650125,21.1622625 65.4053625,20.9973375 C65.4138,20.9973375 65.4174,20.9973375 65.431575,21.0058875 C65.3949,21.1289625 65.0640375,22.117275 65.0640375,22.117275 C64.0814625,24.998625 63.627075,26.958375 64.5552,28.11915 C65.8814625,29.7576 68.0772375,28.061775 69.8634,25.8219 C69.48,28.5058125 70.87095,28.926 71.931375,28.72035 C73.1494125,28.391175 74.506725,27.09 75.1366125,26.423325 C74.9343375,27.2053125 74.9892375,28.6052625 76.0973625,28.7449875 C76.8567375,28.8853875 77.4252,28.4722875 78.0827625,28.1181375 C80.441775,26.8336125 83.2656375,22.553325 83.9988,21.315825 L83.0374875,21.315825 C81.995175,22.8911625 80.6689125,24.9562125 79.00065,25.936425 L79.00065,25.936425 Z M57.826125,25.649775 C57.6765,25.4273625 57.6268875,25.1843625 57.6219375,24.9215625 C57.59325,23.307075 59.33025,20.41605 60.5561625,18.84105 L60.55875,18.84105 C61.072425,19.96605 62.2359,20.6892 62.9382375,20.9939625 C62.066025,22.937175 59.0743125,27.098775 57.826125,25.649775 L57.826125,25.649775 Z M63.43065,20.1252375 C63.347625,20.1832875 61.8805125,19.6889625 61.5969,18.330525 C61.356375,17.160975 62.1617625,16.2471375 62.9409375,15.7865625 C63.2754,15.5228625 63.779175,15.4326375 64.1487375,15.5638125 C64.49175,15.794775 64.584675,16.20675 64.584675,16.6505625 C64.584675,16.9228125 64.5485625,17.2024875 64.516725,17.4576375 L64.50975,17.5154625 C64.2640286,18.4282587 63.9013221,19.3054548 63.43065,20.1252375 L63.43065,20.1252375 Z M75.1978125,25.13115 C75.196575,25.13115 74.919375,25.3780875 74.919375,25.3780875 C74.5236,25.7320125 74.11635,26.1106875 73.624725,25.9212375 C73.4889375,25.8719625 73.393425,25.69095 73.370475,25.55055 C73.3480875,24.537825 73.80405,23.5994625 74.2464,22.685625 L74.3598,22.4467875 C75.63195,20.322675 77.11065,17.819775 79.28235,16.082775 C79.6483125,15.8187375 80.0454375,15.5968875 80.4646125,15.7699125 C80.561025,15.8603625 80.6733,16.01685 80.6733,16.1731125 C80.6733,16.222725 80.6292,16.35435 80.6038875,16.3954125 C79.9972875,17.375625 79.4197125,18.40455 78.858,19.392525 C77.760225,21.3438375 76.6213875,23.360625 75.1978125,25.13115 L75.1978125,25.13115 Z" id="Shape"></path></g></g></g></svg>