<svg xmlns="http://www.w3.org/2000/svg" xmlns:xlink="http://www.w3.org/1999/xlink" width="212px" height="129px" viewBox="0 0 212 129"><title>svg0 5</title><g id="&#x1F336;-Templates" stroke="none" stroke-width="1" fill="none" fill-rule="evenodd"><g id="Artboard-Copy-4" transform="translate(-354.000000, -15826.000000)" fill="#212121"><g id="Group-52" transform="translate(240.000000, 15775.000000)"><g id="svg0-5" transform="translate(114.000000, 51.000000)"><g id="Group-3" transform="translate(0.000000, 63.440000)"><path d="M15.9510231,18.57024 C17.8046187,18.57024 19.4606757,18.2203939 20.919194,17.5207016 C22.3777123,16.8210093 23.5777966,15.8100133 24.519447,14.4877135 C25.4610973,13.1654137 26.0863886,11.5733174 26.3953212,9.71142439 C26.7161358,7.77837628 26.6121681,6.11215994 26.0834181,4.71277542 C25.5546682,3.31339089 24.660546,2.23716932 23.4010516,1.4841107 C22.1415571,0.731052074 20.5731301,0.354522762 18.6957704,0.354522762 L18.6957704,0.354522762 L11.8517252,0.354522762 L8.82180927,18.57024 L15.9510231,18.57024 Z M16.2718377,14.3720864 L14.4717112,14.3720864 L16.1114304,4.55267635 L17.947203,4.55267635 C18.8977648,4.55267635 19.6730668,4.68460983 20.273109,4.94847685 C20.8731511,5.21234384 21.2801104,5.68078188 21.4939868,6.35379095 C21.7078633,7.02680005 21.7138043,7.97998251 21.5118099,9.21333836 C21.2979335,10.5178494 20.9518695,11.5451518 20.4736181,12.2952456 C19.9953667,13.0453394 19.4012655,13.579003 18.6913147,13.8962364 C17.9813638,14.2134698 17.1748715,14.3720864 16.2718377,14.3720864 L16.2718377,14.3720864 Z M39.7527071,18.57024 L40.4299823,14.5855518 L32.2670325,14.5855518 L32.7660775,11.4547254 L40.2873981,11.4547254 L40.9646733,7.4700373 L33.4433527,7.4700373 L33.9423977,4.3392109 L42.1409937,4.3392109 L42.8182689,0.354522762 L29.6648694,0.354522762 L26.6349535,18.57024 L39.7527071,18.57024 Z M49.0464407,18.7837054 C51.3634354,18.7837054 53.2571327,18.3019258 54.727533,17.3383665 C56.1979334,16.3748073 57.0846294,14.9946939 57.387621,13.1980265 C57.6193204,11.8105012 57.3668275,10.6394061 56.6301421,9.68474122 C55.8934566,8.73007634 54.5537585,8.03927848 52.6110476,7.6123476 L52.6110476,7.6123476 L51.185205,7.29214944 C49.5336038,6.94230332 48.8088003,6.36120296 49.0107948,5.54884837 C49.082087,5.13970629 49.312301,4.80616655 49.7014373,4.54822914 C50.0905736,4.29029175 50.668337,4.16132304 51.4347274,4.16132304 C52.236764,4.16132304 52.807101,4.32883411 53.1457389,4.66385625 C53.4843765,4.99887841 53.6269607,5.45990446 53.5734917,6.0469344 L53.5734917,6.0469344 L58.3144188,6.0469344 C58.5164132,4.84915611 58.3990781,3.80554731 57.9624138,2.916108 C57.5257495,2.02666868 56.8098576,1.33587081 55.8147383,0.843714388 C54.8196188,0.351557967 53.5853737,0.105479754 52.1120029,0.105479754 C50.662396,0.105479754 49.3420062,0.347110768 48.1508333,0.830372798 C46.9596606,1.31363483 45.9793938,1.98960871 45.2100326,2.85829443 C44.4406717,3.72698019 43.960935,4.7424234 43.7708226,5.9046241 C43.5391232,7.32772703 43.8183506,8.44842056 44.6085053,9.26670474 C45.3986596,10.0849889 46.5690391,10.6720188 48.1196429,11.0277946 L48.1196429,11.0277946 L49.8663004,11.4191479 C50.8465674,11.6326133 51.519387,11.8801739 51.8847591,12.1618297 C52.2501312,12.4434855 52.3971712,12.7888844 52.3258793,13.1980265 C52.254587,13.6427462 51.9916973,14.0088987 51.53721,14.2964841 C51.0827224,14.5840695 50.4544606,14.7278622 49.652424,14.7278622 C48.7078031,14.7278622 47.9993376,14.5099495 47.5270271,14.0741242 C47.0547168,13.638299 46.8720307,13.0023499 46.9789689,12.1662769 L46.9789689,12.1662769 L42.2736878,12.1662769 C42.0241652,13.6842534 42.1444707,14.9309508 42.6346043,15.9063692 C43.1247375,16.8817877 43.9208332,17.6051984 45.0228907,18.0766012 C46.1249484,18.548004 47.4661317,18.7837054 49.0464407,18.7837054 Z M62.7602872,18.57024 L65.790203,0.354522762 L60.8353995,0.354522762 L57.8054837,18.57024 L62.7602872,18.57024 Z M73.3016335,18.819283 C74.9057065,18.819283 76.3835332,18.5064969 77.7351134,17.8809245 C79.0866933,17.2553522 80.2154855,16.3540537 81.1214898,15.177029 C82.0274942,14.0000043 82.6171395,12.5813486 82.8904259,10.9210619 L82.8904259,10.9210619 L83.3181787,8.3950542 L75.2265211,8.3950542 L74.6205379,11.9172339 L77.757392,11.9172339 C77.5613386,12.8007436 77.1053662,13.4544815 76.3894742,13.8784476 C75.6735823,14.3024137 74.8938245,14.5143967 74.0502009,14.5143967 C72.7847655,14.5143967 71.9084661,14.0667122 71.4213034,13.1713433 C70.9341403,12.2759744 70.8242316,11.0277946 71.0915773,9.42680381 C71.3410996,7.84360182 71.8639087,6.61172836 72.6600043,5.73118345 C73.4560997,4.85063851 74.4779537,4.41036605 75.7255662,4.41036605 C76.5097796,4.41036605 77.1231892,4.58084194 77.5657945,4.92179366 C78.0083998,5.2627454 78.27426,5.74452503 78.3633752,6.36713256 L78.3633752,6.36713256 L83.4251169,6.36713256 C83.4964091,5.1456359 83.2379753,4.06348472 82.649815,3.12067905 C82.0616548,2.17787337 81.2210017,1.43963873 80.1278557,0.905975141 C79.0347094,0.372311551 77.769274,0.105479754 76.3315494,0.105479754 C74.6918301,0.105479754 73.145682,0.470149874 71.6931046,1.19949012 C70.2405273,1.92883036 69.0047968,2.99319273 67.9859133,4.39257726 C66.96703,5.79196181 66.2912399,7.4937557 65.9585431,9.49795896 C65.6496105,11.4191479 65.7535782,13.0764698 66.2704462,14.4699247 C66.7873142,15.8633797 67.6487611,16.9366364 68.8547863,17.6896951 C70.0608117,18.4427537 71.5430941,18.819283 73.3016335,18.819283 Z M88.2987383,18.57024 L89.9028114,8.99987294 L90.0097496,8.99987294 L95.0001993,18.57024 L99.1351432,18.57024 L102.165059,0.354522762 L97.2102556,0.354522762 L95.6418285,9.88931225 L95.4992443,9.88931225 L90.5800868,0.354522762 L86.3738505,0.354522762 L83.3439346,18.57024 L88.2987383,18.57024 Z M112.696515,18.7837054 C115.01351,18.7837054 116.907207,18.3019258 118.377607,17.3383665 C119.848008,16.3748073 120.734704,14.9946939 121.037695,13.1980265 C121.269395,11.8105012 121.016902,10.6394061 120.280216,9.68474122 C119.543531,8.73007634 118.203833,8.03927848 116.261122,7.6123476 L116.261122,7.6123476 L114.835279,7.29214944 C113.183678,6.94230332 112.458875,6.36120296 112.660869,5.54884837 C112.732161,5.13970629 112.962375,4.80616655 113.351512,4.54822914 C113.740648,4.29029175 114.318411,4.16132304 115.084802,4.16132304 C115.886838,4.16132304 116.457175,4.32883411 116.795813,4.66385625 C117.134451,4.99887841 117.277035,5.45990446 117.223566,6.0469344 L117.223566,6.0469344 L121.964493,6.0469344 C122.166488,4.84915611 122.049152,3.80554731 121.612488,2.916108 C121.175824,2.02666868 120.459932,1.33587081 119.464813,0.843714388 C118.469693,0.351557967 117.235448,0.105479754 115.762077,0.105479754 C114.31247,0.105479754 112.992081,0.347110768 111.800908,0.830372798 C110.609735,1.31363483 109.629468,1.98960871 108.860107,2.85829443 C108.090746,3.72698019 107.611009,4.7424234 107.420897,5.9046241 C107.189198,7.32772703 107.468425,8.44842056 108.25858,9.26670474 C109.048734,10.0849889 110.219113,10.6720188 111.769717,11.0277946 L111.769717,11.0277946 L113.516375,11.4191479 C114.496642,11.6326133 115.169461,11.8801739 115.534833,12.1618297 C115.900206,12.4434855 116.047246,12.7888844 115.975954,13.1980265 C115.904661,13.6427462 115.641772,14.0088987 115.187284,14.2964841 C114.732797,14.5840695 114.104535,14.7278622 113.302498,14.7278622 C112.357877,14.7278622 111.649412,14.5099495 111.177101,14.0741242 C110.704791,13.638299 110.522105,13.0023499 110.629043,12.1662769 L110.629043,12.1662769 L105.923762,12.1662769 C105.674239,13.6842534 105.794545,14.9309508 106.284679,15.9063692 C106.774812,16.8817877 107.570907,17.6051984 108.672965,18.0766012 C109.775023,18.548004 111.116206,18.7837054 112.696515,18.7837054 Z M132.327609,18.57024 L133.290053,12.8422508 L142.058986,0.354522762 L136.533845,0.354522762 L131.757272,7.7546579 L131.579042,7.7546579 L129.262047,0.354522762 L123.736906,0.354522762 L128.370895,12.8422508 L127.408452,18.57024 L132.327609,18.57024 Z M147.431652,18.7837054 C149.748647,18.7837054 151.642344,18.3019258 153.112744,17.3383665 C154.583145,16.3748073 155.469841,14.9946939 155.772832,13.1980265 C156.004532,11.8105012 155.752039,10.6394061 155.015353,9.68474122 C154.278668,8.73007634 152.93897,8.03927848 150.996259,7.6123476 L150.996259,7.6123476 L149.570416,7.29214944 C147.918815,6.94230332 147.194012,6.36120296 147.396006,5.54884837 C147.467298,5.13970629 147.697512,4.80616655 148.086649,4.54822914 C148.475785,4.29029175 149.053548,4.16132304 149.819939,4.16132304 C150.621975,4.16132304 151.192312,4.32883411 151.53095,4.66385625 C151.869588,4.99887841 152.012172,5.45990446 151.958703,6.0469344 L151.958703,6.0469344 L156.69963,6.0469344 C156.901624,4.84915611 156.784289,3.80554731 156.347625,2.916108 C155.910961,2.02666868 155.195069,1.33587081 154.199949,0.843714388 C153.20483,0.351557967 151.970585,0.105479754 150.497214,0.105479754 C149.047607,0.105479754 147.727217,0.347110768 146.536045,0.830372798 C145.344872,1.31363483 144.364605,1.98960871 143.595244,2.85829443 C142.825883,3.72698019 142.346146,4.7424234 142.156034,5.9046241 C141.924334,7.32772703 142.203562,8.44842056 142.993716,9.26670474 C143.783871,10.0849889 144.95425,10.6720188 146.504854,11.0277946 L146.504854,11.0277946 L148.251512,11.4191479 C149.231779,11.6326133 149.904598,11.8801739 150.26997,12.1618297 C150.635343,12.4434855 150.782383,12.7888844 150.71109,13.1980265 C150.639798,13.6427462 150.376909,14.0088987 149.922421,14.2964841 C149.467934,14.5840695 148.839672,14.7278622 148.037635,14.7278622 C147.093014,14.7278622 146.384549,14.5099495 145.912238,14.0741242 C145.439928,13.638299 145.257242,13.0023499 145.36418,12.1662769 L145.36418,12.1662769 L140.658899,12.1662769 C140.409377,13.6842534 140.529682,14.9309508 141.019815,15.9063692 C141.509949,16.8817877 142.306044,17.6051984 143.408102,18.0766012 C144.51016,18.548004 145.851343,18.7837054 147.431652,18.7837054 Z M166.064656,18.57024 L168.417296,4.3392109 L173.906791,4.3392109 L174.584066,0.354522762 L158.721566,0.354522762 L158.04429,4.3392109 L163.533785,4.3392109 L161.181144,18.57024 L166.064656,18.57024 Z M185.945272,18.57024 L186.622548,14.5855518 L178.459598,14.5855518 L178.958643,11.4547254 L186.479963,11.4547254 L187.157239,7.4700373 L179.635918,7.4700373 L180.134963,4.3392109 L188.333559,4.3392109 L189.010834,0.354522762 L175.857435,0.354522762 L172.827519,18.57024 L185.945272,18.57024 Z M192.708135,18.57024 L194.490439,7.96812332 L194.633023,7.96812332 L196.950017,18.4279297 L199.872995,18.4279297 L205.647658,8.03927848 L205.790243,8.03927848 L204.043585,18.57024 L208.891451,18.57024 L211.921367,0.354522762 L205.754597,0.354522762 L199.801703,10.6720188 L199.587827,10.6720188 L197.056955,0.354522762 L190.890186,0.354522762 L187.86027,18.57024 L192.708135,18.57024 Z" id="DESIGNSYSTEM"></path><path d="M17.9802208,63.96416 C20.7292629,63.96416 23.1811111,63.500687 25.3357657,62.5737414 C27.4904204,61.6467955 29.242625,60.3737901 30.5923799,58.7547246 C31.9421346,57.1356594 32.7903751,55.2879473 33.1371011,53.2115887 C33.4342949,51.4318527 33.2980812,49.871494 32.7284598,48.5305125 C32.1588386,47.1895309 31.2672573,46.1389923 30.0537163,45.3788967 C28.840175,44.6188013 27.4161217,44.214035 25.7815563,44.1645977 L25.7815563,44.1645977 L25.8558547,43.7938194 C28.1219568,43.3488855 30.0568119,42.3725025 31.6604197,40.8646707 C33.2640276,39.3568389 34.2515776,37.5647437 34.6230698,35.488385 C35.1060098,32.5963142 34.3568338,30.2913092 32.3755424,28.5733696 C30.3942507,26.85543 27.2303758,25.9964601 22.8839174,25.9964601 L22.8839174,25.9964601 L6.38966526,25.9964601 L0.0742984333,63.96416 L17.9802208,63.96416 Z M18.4260114,41.3466827 L14.1910007,41.3466827 L15.3797757,34.0794277 L19.7633832,34.0794277 C21.0264566,34.0794277 22.0325812,34.3884094 22.7817571,35.0063733 C23.5309329,35.6243373 23.8126478,36.5265644 23.6269017,37.7130552 C23.4411557,38.8624679 22.862247,39.7554256 21.8901759,40.3919284 C20.9181047,41.0284311 19.7633832,41.3466827 18.4260114,41.3466827 L18.4260114,41.3466827 Z M16.642849,55.7328813 L11.8134509,55.7328813 L13.0765242,47.7240696 L18.0545193,47.7240696 C19.6519356,47.7240696 20.8376147,48.0824887 21.6115567,48.7993267 C22.3854988,49.5161648 22.6610221,50.5419849 22.4381268,51.8767869 C22.0542516,54.4475166 20.1224923,55.7328813 16.642849,55.7328813 L16.642849,55.7328813 Z M50.1308277,64.4090939 C53.4494913,64.4090939 56.42762,63.8992738 59.0652145,62.8796335 C61.7028088,61.8599929 63.8636548,60.3583409 65.5477527,58.3746769 C67.2318507,56.3910129 68.3091779,53.9531453 68.7797346,51.0610744 L68.7797346,51.0610744 L72.9404467,25.9964601 L62.687263,25.9964601 L58.6008493,50.6161405 C58.3779539,52.0250981 57.6411612,53.1683314 56.3904708,54.04584 C55.1397806,54.9233488 53.5485558,55.3621029 51.6167966,55.3621029 C49.7221864,55.3621029 48.3136119,54.9233488 47.3910731,54.04584 C46.4685342,53.1683314 46.1187123,52.0250981 46.3416077,50.6161405 L46.3416077,50.6161405 L50.4280215,25.9964601 L40.1005394,25.9964601 L35.939827,51.0610744 C35.2339919,55.3991808 36.1689141,58.7083774 38.744593,60.9886641 C41.320272,63.2689506 45.1156837,64.4090939 50.1308277,64.4090939 Z M80.6468693,63.96416 L83.9902988,44.0162865 L84.2131942,44.0162865 L94.6149746,63.96416 L103.233593,63.96416 L109.54896,25.9964601 L99.2214776,25.9964601 L95.9523465,45.870178 L95.6551527,45.870178 L85.401969,25.9964601 L76.6347539,25.9964601 L70.319387,63.96416 L80.6468693,63.96416 Z M121.787587,63.96416 C125.651105,63.96416 129.102887,63.2349626 132.142931,61.7765679 C135.182975,60.3181732 137.684356,58.2109165 139.647073,55.4547976 C141.609789,52.6986787 142.913108,49.3802129 143.557028,45.4993997 C144.225713,41.4702754 144.00901,37.9973184 142.906916,35.0805289 C141.804823,32.1637395 139.941171,29.9205309 137.315959,28.3509025 C134.690748,26.7812743 131.421617,25.9964601 127.508566,25.9964601 L127.508566,25.9964601 L113.243267,25.9964601 L106.9279,63.96416 L121.787587,63.96416 Z M122.456272,55.2137917 L118.704202,55.2137917 L122.12193,34.7468284 L125.948299,34.7468284 C127.929591,34.7468284 129.545582,35.0218225 130.796272,35.5718103 C132.046962,36.1217981 132.895202,37.0981811 133.340993,38.500959 C133.786784,39.9037369 133.799167,41.8904908 133.378142,44.4612204 C132.932352,47.1802615 132.211038,49.3215062 131.2142,50.8849548 C130.217363,52.4484034 128.979056,53.5607383 127.499279,54.2219596 C126.019502,54.8831811 124.3385,55.2137917 122.456272,55.2137917 L122.456272,55.2137917 Z M169.76376,63.96416 L171.17543,55.6587256 L155.795655,55.6587256 L160.699351,25.9964601 L150.371869,25.9964601 L144.056502,63.96416 L169.76376,63.96416 Z M200.056906,63.96416 L201.468576,55.6587256 L184.454235,55.6587256 L185.494413,49.1330272 L201.171383,49.1330272 L202.583053,40.8275929 L186.906084,40.8275929 L187.946262,34.3018945 L205.034901,34.3018945 L206.446572,25.9964601 L179.03045,25.9964601 L172.715083,63.96416 L200.056906,63.96416 Z" id="BUNDLE"></path></g><g id="Group" transform="translate(76.960000, 0.000000)"><path d="M25.3894619,0 C39.4116745,0 50.7789239,11.1749726 50.7789239,24.96 C50.7789239,38.7450273 39.4116745,49.92 25.3894619,49.92 C11.3672493,49.92 4.41128015e-14,38.7450273 4.41128015e-14,24.96 C4.41128015e-14,11.1749726 11.3672493,0 25.3894619,0 Z M25.8670229,12.2117168 L15.240297,26.6027901 C15.1161321,26.7710551 15.0982345,26.9941166 15.1933157,27.1795402 C15.2889562,27.3660705 15.4819152,27.4828598 15.6922125,27.4828598 L24.575596,27.4828598 L23.5263467,36.8315223 C23.4983816,37.0805988 23.6432407,37.3174979 23.8792658,37.4082724 C23.9452634,37.4337334 24.0134982,37.4459105 24.0817329,37.4459105 C24.256235,37.4459105 24.4257033,37.365099 24.5336484,37.2189745 L35.1603743,22.827901 C35.2845392,22.6596361 35.3024368,22.4365745 35.2073555,22.251151 C35.111715,22.0646206 34.9187561,21.9478315 34.7084587,21.9478315 L25.8250753,21.9478315 L26.8743246,12.5991688 C26.9022897,12.3500925 26.7574306,12.1131933 26.5214054,12.0224188 C26.2848211,11.9305374 26.0169156,12.0091348 25.8670229,12.2117168 Z" id="Combined-Shape"></path></g></g></g></g></g></svg>