<?xml version="1.0" encoding="UTF-8"?>
<svg width="148px" height="21px" viewBox="0 0 148 21" version="1.1" xmlns="http://www.w3.org/2000/svg" xmlns:xlink="http://www.w3.org/1999/xlink">
    <title>Group Copy</title>
    <g id="Page-1" stroke="none" stroke-width="1" fill="none" fill-rule="evenodd">
        <g id="Group-Copy" fill="#000000">
            <path d="M2.22359481,11.6980365 C3.45165232,11.6980365 4.44718962,12.6935738 4.44718962,13.9216313 C4.44718962,15.1496888 3.45165232,16.1452261 2.22359481,16.1452261 C0.995537307,16.1452261 1.44328993e-13,15.1496888 1.44328993e-13,13.9216313 C1.44328993e-13,12.6935738 0.995537307,11.6980365 2.22359481,11.6980365 Z M13.7764052,11.6980365 C15.0044627,11.6980365 16,12.6935738 16,13.9216313 C16,15.1496888 15.0044627,16.1452261 13.7764052,16.1452261 C12.5483477,16.1452261 11.5528104,15.1496888 11.5528104,13.9216313 C11.5528104,12.6935738 12.5483477,11.6980365 13.7764052,11.6980365 Z M2.22359481,5.92163127 C3.45165232,5.92163127 4.44718962,6.91716858 4.44718962,8.14522608 C4.44718962,9.37328358 3.45165232,10.3688209 2.22359481,10.3688209 C0.995537307,10.3688209 1.44328993e-13,9.37328358 1.44328993e-13,8.14522608 C1.44328993e-13,6.91716858 0.995537307,5.92163127 2.22359481,5.92163127 Z M8,5.92163127 C9.2280575,5.92163127 10.2235948,6.91716858 10.2235948,8.14522608 C10.2235948,9.37328358 9.2280575,10.3688209 8,10.3688209 C6.7719425,10.3688209 5.77640519,9.37328358 5.77640519,8.14522608 C5.77640519,6.91716858 6.7719425,5.92163127 8,5.92163127 Z M2.22359481,0.14522608 C3.45165232,0.14522608 4.44718962,1.14076339 4.44718962,2.36882089 C4.44718962,3.5968784 3.45165232,4.5924157 2.22359481,4.5924157 C0.995537307,4.5924157 1.44328993e-13,3.5968784 1.44328993e-13,2.36882089 C1.44328993e-13,1.14076339 0.995537307,0.14522608 2.22359481,0.14522608 Z M13.7764052,0.14522608 C15.0044627,0.14522608 16,1.14076339 16,2.36882089 C16,3.5968784 15.0044627,4.5924157 13.7764052,4.5924157 C12.5483477,4.5924157 11.5528104,3.5968784 11.5528104,2.36882089 C11.5528104,1.14076339 12.5483477,0.14522608 13.7764052,0.14522608 Z M8,0.14522608 C9.2280575,0.14522608 10.2235948,1.14076339 10.2235948,2.36882089 C10.2235948,3.5968784 9.2280575,4.5924157 8,4.5924157 C6.7719425,4.5924157 5.77640519,3.5968784 5.77640519,2.36882089 C5.77640519,1.14076339 6.7719425,0.14522608 8,0.14522608 Z" id="Combined-Shape-Copy-2"></path>
            <path d="M29.3398743,16.1452261 L29.3398743,7.07705291 L31.614375,7.07705291 L31.614375,4.69069155 L29.3398743,4.69069155 L29.3398743,3.92258149 C29.3398743,3.14701404 29.6530843,2.69211391 30.5852567,2.69211391 C30.965583,2.69211391 31.3533667,2.77414508 31.6069176,2.85617625 L32.1662211,0.469814893 C31.77098,0.350496825 30.8984666,0.156604964 29.9215499,0.156604964 C27.7663673,0.156604964 26.1630308,1.37215778 26.1630308,3.86292245 L26.1630308,4.69069155 L24.5447795,4.69069155 L24.5447795,7.07705291 L26.1630308,7.07705291 L26.1630308,16.1452261 L29.3398743,16.1452261 Z M36.0520198,16.3614901 C37.7448449,16.3614901 38.8410797,15.6232095 39.4003831,14.5568043 L39.4898717,14.5568043 L39.4898717,16.1452261 L42.5026529,16.1452261 L42.5026529,8.41938118 C42.5026529,5.68998037 40.1908653,4.54154396 37.6404416,4.54154396 C34.896126,4.54154396 33.0914403,5.85404271 32.6514549,7.9421089 L35.5896623,8.18074504 C35.8059263,7.42009236 36.4845478,6.86078891 37.6255268,6.86078891 C38.7068468,6.86078891 39.3258093,7.4051776 39.3258093,8.34480738 L39.3258093,8.38955166 C39.3258093,9.1278322 38.5427845,9.22477813 36.5516642,9.41866999 C34.2846209,9.62747661 32.2487564,10.3881293 32.2487564,12.9460104 C32.2487564,15.2130537 33.8670077,16.3614901 36.0520198,16.3614901 Z M36.9618201,14.1690206 C35.9849034,14.1690206 35.2839098,13.7141204 35.2839098,12.8416071 C35.2839098,11.9467216 36.0221903,11.5067362 37.1407972,11.3501312 C37.8343335,11.2531853 38.9678551,11.0891229 39.3481815,10.8355721 L39.3481815,12.0511249 C39.3481815,13.2517629 38.35635,14.1690206 36.9618201,14.1690206 Z M51.2059229,16.3316606 C53.8160056,16.3316606 55.8518702,14.2659665 55.8518702,10.4328736 C55.8518702,6.49537733 53.7265171,4.54154396 51.2133803,4.54154396 C49.2968338,4.54154396 48.3795762,5.68252299 47.9545056,6.6146954 L47.8575596,6.6146954 L47.8575596,0.872513372 L44.6807161,0.872513372 L44.6807161,16.1452261 L47.8128153,16.1452261 L47.8128153,14.3107108 L47.9545056,14.3107108 C48.3944909,15.2652553 49.3564929,16.3316606 51.2059229,16.3316606 Z M50.1991767,13.803609 C48.670414,13.803609 47.7904432,12.4612807 47.7904432,10.4179588 C47.7904432,8.3746369 48.6554992,7.06959553 50.1991767,7.06959553 C51.7726837,7.06959553 52.6079102,8.43429593 52.6079102,10.4179588 C52.6079102,12.4165365 51.757769,13.803609 50.1991767,13.803609 Z M60.7891648,16.1452261 L60.7891648,9.66476351 C60.7891648,8.25531883 61.8182831,7.28585953 63.2202704,7.28585953 C63.6602558,7.28585953 64.2643035,7.36043332 64.5625987,7.45737925 L64.5625987,4.63848989 C64.2792183,4.57137348 63.8839772,4.52662921 63.5633099,4.52662921 C62.2806406,4.52662921 61.2291502,5.27236713 60.8115369,6.68926919 L60.6922189,6.68926919 L60.6922189,4.69069155 L57.6123212,4.69069155 L57.6123212,16.1452261 L60.7891648,16.1452261 Z M68.7392364,16.1452261 L70.9615354,12.1853577 L73.2211214,16.1452261 L76.4650813,16.1452261 L73.057059,10.4179588 L76.3755928,4.69069155 L73.1167181,4.69069155 L70.9615354,8.69530421 L68.8585545,4.69069155 L65.5773076,4.69069155 L68.8585545,10.4179588 L65.4579896,16.1452261 L68.7392364,16.1452261 Z M86.6454138,16.3316606 C88.4948439,16.3316606 89.4568458,15.2652553 89.8968312,14.3107108 L90.031064,14.3107108 L90.031064,16.1452261 L93.1631633,16.1452261 L93.1631633,0.872513372 L89.9937771,0.872513372 L89.9937771,6.6146954 L89.8968312,6.6146954 C89.4717605,5.68252299 88.5545029,4.54154396 86.6379564,4.54154396 C84.1248196,4.54154396 81.9994665,6.49537733 81.9994665,10.4328736 C81.9994665,14.2659665 84.0353311,16.3316606 86.6454138,16.3316606 Z M87.65216,13.803609 C86.0935677,13.803609 85.2434265,12.4165365 85.2434265,10.4179588 C85.2434265,8.43429593 86.078653,7.06959553 87.65216,7.06959553 C89.1958375,7.06959553 90.0608935,8.3746369 90.0608935,10.4179588 C90.0608935,12.4612807 89.1809227,13.803609 87.65216,13.803609 Z M100.635967,16.3689475 C103.469771,16.3689475 105.37886,14.9893323 105.826303,12.8639792 L102.888095,12.6700873 C102.567428,13.5426007 101.747116,13.9975009 100.688168,13.9975009 C99.0997467,13.9975009 98.0930005,12.9460104 98.0930005,11.2382705 L98.0930005,11.2308132 L105.893419,11.2308132 L105.893419,10.3582998 C105.893419,6.46554781 103.536887,4.54154396 100.509191,4.54154396 C97.138456,4.54154396 94.9534438,6.9353627 94.9534438,10.4701605 C94.9534438,14.1019042 97.1086264,16.3689475 100.635967,16.3689475 Z M102.90301,9.26206503 L98.0930005,9.26206503 C98.1601169,7.95702366 99.1519484,6.91299057 100.561393,6.91299057 C101.941008,6.91299057 102.895553,7.89736463 102.90301,9.26206503 Z M112.307274,16.3689475 C115.275311,16.3689475 117.400664,14.8550995 117.408122,12.5955136 C117.400664,10.9399754 116.319344,9.94814392 114.097045,9.49324379 L112.023894,9.07563055 C110.957489,8.84445179 110.562247,8.47904021 110.569705,7.92719414 C110.562247,7.24111525 111.337815,6.7936725 112.322189,6.7936725 C113.425881,6.7936725 114.08213,7.39772022 114.238735,8.13600076 L117.147113,7.95702366 C116.863733,5.84658533 115.16345,4.54154396 112.269987,4.54154396 C109.339237,4.54154396 107.407776,5.89878699 107.415233,8.10617125 C107.407776,9.82136847 108.489096,10.932518 110.72631,11.3799607 L112.709973,11.7752018 C113.709261,11.9765511 114.164162,12.3419627 114.179076,12.9161809 C114.164162,13.5948024 113.425881,14.079532 112.314732,14.079532 C111.18121,14.079532 110.428015,13.5948024 110.234123,12.66263 L107.109481,12.8266923 C107.407776,15.0191618 109.272121,16.3689475 112.307274,16.3689475 Z M120.660047,3.21413046 C121.607134,3.21413046 122.382702,2.49076467 122.382702,1.60333654 C122.382702,0.723365787 121.607134,0 120.660047,0 C119.720417,0 118.94485,0.723365787 118.94485,1.60333654 C118.94485,2.49076467 119.720417,3.21413046 120.660047,3.21413046 Z M122.241011,16.1452261 L122.241011,4.69069155 L119.064168,4.69069155 L119.064168,16.1452261 L122.241011,16.1452261 Z M129.587032,20.6047389 C132.860822,20.6047389 135.187524,19.113263 135.187524,16.2570868 L135.187524,4.69069155 L132.033053,4.69069155 L132.033053,6.6146954 L131.913735,6.6146954 C131.488664,5.68252299 130.556492,4.54154396 128.639945,4.54154396 C126.126808,4.54154396 124.001455,6.49537733 124.001455,10.3955867 C124.001455,14.2063075 126.067149,15.9811637 128.647402,15.9811637 C130.47446,15.9811637 131.496121,15.0639061 131.913735,14.1168189 L132.047967,14.1168189 L132.047967,16.2123425 C132.047967,17.7112757 131.041221,18.3227808 129.661606,18.3227808 C128.259619,18.3227808 127.551168,17.7112757 127.290159,17.0923132 L124.351952,17.4875543 C124.732278,19.2176663 126.499677,20.6047389 129.587032,20.6047389 Z M129.654149,13.5948024 C128.095556,13.5948024 127.245415,12.3568774 127.245415,10.3806719 C127.245415,8.43429593 128.080642,7.06959553 129.654149,7.06959553 C131.197826,7.06959553 132.062882,8.3746369 132.062882,10.3806719 C132.062882,12.4016217 131.182911,13.5948024 129.654149,13.5948024 Z M140.549889,16.1452261 L140.549889,9.5230733 C140.557347,8.04651221 141.437317,7.18145622 142.719987,7.18145622 C143.995198,7.18145622 144.763309,8.0166827 144.755851,9.41866999 L144.755851,16.1452261 L147.932695,16.1452261 L147.932695,8.85190917 C147.932695,6.1821674 146.366645,4.54154396 143.980284,4.54154396 C142.280001,4.54154396 141.049534,5.37677044 140.534974,6.71164133 L140.400742,6.71164133 L140.400742,4.69069155 L137.373046,4.69069155 L137.373046,16.1452261 L140.549889,16.1452261 Z" id="fabrxdesign" fill-rule="nonzero"></path>
        </g>
    </g>
</svg>