<svg xmlns="http://www.w3.org/2000/svg" xmlns:xlink="http://www.w3.org/1999/xlink" width="529px" height="48px" viewBox="0 0 529 48"><title>svg0</title><g id="New" stroke="none" stroke-width="1" fill="none" fill-rule="evenodd"><g id="svg0"><g id="sketch-2" transform="translate(299.214286, 0.000000)" fill-rule="nonzero"><g id="a-link" transform="translate(0.009874, 16.721041)" fill="#EA6C00"><polygon id="a" points="10.4940537 0 25.9079322 30.169513 0 0"></polygon></g><g id="b-link" transform="translate(38.830126, 32.221041) scale(-1, 1) translate(-38.830126, -32.221041) translate(25.830126, 16.721041)" fill="#EA6C00"><polygon id="b" points="10.4940537 0 25.9079322 30.169513 0 0"></polygon></g><g id="c-link" transform="translate(10.503379, 16.721041)" fill="#FDAD00"><polygon id="c" points="0 0 30.827757 0 15.4138785 30.169513"></polygon></g><g id="d-link" transform="translate(10.503379, 0.001097)" fill="#FDD231"><polygon id="d" points="15.4138785 0 0.811285633 1.54358199 0 16.7199441"></polygon></g><g id="e-link" transform="translate(33.331136, 8.501097) scale(-1, 1) translate(-33.331136, -8.501097) translate(25.331136, 0.001097)" fill="#FDD231"><polygon id="e" points="15.4138785 0 0.811285633 1.54358199 0 16.7199441"></polygon></g><g id="f-link" transform="translate(45.830126, 9.544679) scale(-1, 1) translate(-45.830126, -9.544679) translate(39.830126, 1.544679)" fill="#FDAD00"><polygon id="f" points="0 15.1763621 11.3053393 0 10.4940537 15.1763621"></polygon></g><g id="g-link" transform="translate(0.009874, 1.544679)" fill="#FDAD00"><polygon id="g" points="0 15.1763621 11.3053393 0 10.4940537 15.1763621"></polygon></g><g id="h-link" transform="translate(10.503379, 0.001097)" fill="#FEEEB7"><polygon id="h" points="15.4138785 0 0 16.7199441 30.827757 16.7199441"></polygon></g></g><path d="M10.8450703,3 C7.8657966,3 5.66127274,5.60765485 5.75999037,8.43558873 C5.85473075,11.1524653 5.73163965,14.6712186 4.84583245,17.5407607 C3.95686384,20.4183594 2.45447935,22.2418821 2.66453526e-13,22.4759286 L2.66453526e-13,25.1184609 C2.45447935,25.3530173 3.95686384,27.1756222 4.84573047,30.0536288 C5.73163965,32.9231709 5.85462877,36.4419242 5.75988839,39.1588008 C5.66117076,41.9863267 7.86569461,44.5943895 10.8454782,44.5943895 L41.3731927,44.5943895 C44.3524664,44.5943895 46.5565823,41.9867347 46.4578647,39.1588008 C46.3631243,36.4419242 46.4862154,32.9231709 47.3720226,30.0536288 C48.2609912,27.1756222 49.7597044,25.3523034 52.2142857,25.1184609 L52.2142857,22.4759286 C49.7598064,22.2413722 48.2610932,20.4187673 47.3720226,17.5407607 C46.4861134,14.6716265 46.3631243,11.1524653 46.4578647,8.43558873 C46.5565823,5.60806278 44.3524664,3 41.3731927,3 L10.8446624,3 L10.8450703,3 Z M35.399552,28.6040705 C35.399552,32.498012 32.4950304,34.8595866 27.6748972,34.8595866 L19.4697077,34.8595866 C18.9809405,34.8595866 18.5847164,34.4633625 18.5847164,33.9745953 L18.5847164,13.6198962 C18.5847164,13.131129 18.9809405,12.7349049 19.4697077,12.7349049 L27.6281899,12.7349049 C31.6473641,12.7349049 34.2851034,14.9119958 34.2851034,18.2545259 C34.2851034,20.6005995 32.5106335,22.7008987 30.2500201,23.0688463 L30.2500201,23.1912235 C33.3273996,23.5287807 35.399552,25.6601842 35.399552,28.6040705 L35.399552,28.6040705 Z M26.7802176,15.5403009 L22.101736,15.5403009 L22.101736,22.1486715 L26.0421809,22.1486715 C29.0883542,22.1486715 30.7679817,20.9220437 30.7679817,18.7295536 C30.7676758,16.6748398 29.3236244,15.5403009 26.7802176,15.5403009 Z M22.101736,24.7707056 L22.101736,32.0532727 L26.9523616,32.0532727 C30.1239715,32.0532727 31.803905,30.7806515 31.803905,28.3889925 C31.803905,25.9973334 30.0768563,24.7702977 26.7483996,24.7702977 L22.101736,24.7702977 L22.101736,24.7707056 Z" id="Shape" fill="#7952B3"></path><g id="html5" transform="translate(102.214286, 2.400000)" fill-rule="nonzero"><polygon id="Path" fill="#E44D26" points="3.54170525 39.6623602 0.00544528442 -0.00156161174 38.863504 -0.00156161174 35.3233582 39.65609 19.4106299 44.067716"></polygon><polygon id="Path" fill="#F16529" points="19.4344746 40.6957196 32.2926063 37.1307577 35.3180594 3.24167327 19.4344746 3.24167327"></polygon><path d="M19.4344746,17.9524512 L12.9974606,17.9524512 L12.5528007,12.9710247 L19.4344746,12.9710247 L19.4344746,8.10634896 L7.2362235,8.10634896 L7.35279767,9.41144985 L8.54838949,22.8169502 L19.4344746,22.8169502 L19.4344746,17.9524512 Z M19.4344746,30.5862658 L19.4131027,30.5920945 L13.9954062,29.1290886 L13.6490396,25.2494647 L8.76581799,25.2494647 L9.44742366,32.8876343 L19.4122196,35.6538865 L19.4344746,35.6476163 L19.4344746,30.5862658 Z" id="Shape" fill="#EBEBEB"></path><path d="M19.417695,17.9524512 L19.417695,22.8169502 L25.408018,22.8169502 L24.8432515,29.1260859 L19.417695,30.5903282 L19.417695,35.6513254 L29.3904391,32.8876343 L29.4633863,32.0655214 L30.6066964,19.2587884 L30.7253901,17.9524512 L29.4146371,17.9524512 L19.417695,17.9524512 Z M19.417695,8.10634896 L19.417695,12.9710247 L31.168107,12.9710247 L31.2655171,11.8775236 L31.4871847,9.41144985 L31.6035822,8.10634896 L19.417695,8.10634896 Z" id="Shape" fill="#FFFFFF"></path></g><g id="figma-1-(4)" transform="translate(401.214286, 1.600000)" fill-rule="nonzero"><path d="M7.3728,44.2368 C11.4425856,44.2368 14.7456,40.9337856 14.7456,36.864 L14.7456,29.4912 L7.3728,29.4912 C3.3030144,29.4912 0,32.7942144 0,36.864 C0,40.9337856 3.3030144,44.2368 7.3728,44.2368 Z" id="path0_fill" fill="#0ACF83"></path><path d="M0,22.1184 C0,18.0486144 3.3030144,14.7456 7.3728,14.7456 L14.7456,14.7456 L14.7456,29.4912 L7.3728,29.4912 C3.3030144,29.4912 0,26.1881856 0,22.1184 Z" id="path1_fill" fill="#A259FF"></path><path d="M0,7.3728 C0,3.3030144 3.3030144,0 7.3728,0 L14.7456,0 L14.7456,14.7456 L7.3728,14.7456 C3.3030144,14.7456 0,11.4425856 0,7.3728 Z" id="path1_fill_1_" fill="#F24E1E"></path><path d="M14.7456,0 L22.1184,0 C26.1881856,0 29.4912,3.3030144 29.4912,7.3728 C29.4912,11.4425856 26.1881856,14.7456 22.1184,14.7456 L14.7456,14.7456 L14.7456,0 Z" id="path2_fill" fill="#FF7262"></path><path d="M29.4912,22.1184 C29.4912,26.1881856 26.1881856,29.4912 22.1184,29.4912 C18.0486144,29.4912 14.7456,26.1881856 14.7456,22.1184 C14.7456,18.0486144 18.0486144,14.7456 22.1184,14.7456 C26.1881856,14.7456 29.4912,18.0486144 29.4912,22.1184 Z" id="path3_fill" fill="#1ABCFE"></path></g><g id="adobe-xd-(1)" transform="translate(481.214286, 0.800000)" fill-rule="nonzero"><polygon id="Path" fill="#2E001E" points="1.92 1.92 44.16 1.92 44.16 43.008 1.92 43.008"></polygon><path d="M0,0 L0,44.928 L46.08,44.928 L46.08,0 L0,0 Z M1.92,1.92 L44.16,1.92 L44.16,43.008 L1.92,43.008 L1.92,1.92 Z" id="Shape" fill="#FF2BC2"></path><path d="M33.4656,18.8736 C33.1776,18.7392 32.8128,18.6816 32.352,18.6816 C29.9328,18.6816 28.32,20.544 28.32,23.6352 C28.32,27.168 29.9712,28.5888 32.1216,28.5888 C32.5824,28.5888 33.0816,28.5312 33.4464,28.3776 L33.4464,18.8736 L33.4656,18.8736 Z M24.864,23.7888 C24.864,19.3152 27.744,15.8208 32.4672,15.8208 C32.8704,15.8208 33.0816,15.8208 33.4656,15.8592 L33.4656,10.8672 C33.4656,10.752 33.5616,10.6752 33.6576,10.6752 L36.7488,10.6752 C36.9024,10.6752 36.9408,10.7328 36.9408,10.8288 L36.9408,28.3776 C36.9408,28.896 36.9408,29.5488 37.0368,30.2592 C37.0368,30.3936 37.0368,30.4128 36.9216,30.4704 C35.3088,31.2384 33.6192,31.584 32.0064,31.584 C27.84,31.584 24.864,29.0112 24.864,23.7888 L24.864,23.7888 Z M18.3168,20.6784 L23.6928,31.104 C23.7888,31.2576 23.7312,31.4112 23.5776,31.4112 L20.2368,31.4112 C20.0256,31.4112 19.9296,31.3536 19.8336,31.1616 C18.6048,28.6272 17.3568,25.9968 16.0704,23.2704 L16.032,23.2704 C14.88,25.8432 13.6128,28.6464 12.384,31.1808 C12.288,31.3344 12.192,31.392 12.0384,31.392 L8.8512,31.392 C8.6592,31.392 8.64,31.2384 8.736,31.1232 L13.9968,21.0048 L8.9088,10.944 C8.7936,10.7904 8.9088,10.656 9.0432,10.656 L12.3456,10.656 C12.5376,10.656 12.6336,10.6944 12.6912,10.8672 C13.9008,13.4208 15.1296,15.936 16.2816,18.5088 L16.32,18.5088 C17.4336,15.9744 18.6624,13.4208 19.8336,10.9056 C19.9296,10.752 19.9872,10.656 20.1792,10.656 L23.2704,10.656 C23.424,10.656 23.4816,10.7712 23.3856,10.944 L18.3168,20.6784 L18.3168,20.6784 Z" id="Shape" fill="#FF2BC2"></path></g><g id="sass-1-(2)" transform="translate(191.214286, 2.400000)" fill="#CF649A" fill-rule="nonzero"><path d="M49.5680128,24.7845462 C47.555068,24.7959041 45.8120152,25.2793483 44.3501,25.9991728 C43.8103159,24.9308502 43.2705318,23.9973611 43.1806802,23.3002524 C43.0794707,22.4905763 42.9557702,21.9956617 43.0794707,21.028661 C43.2030588,20.0614354 43.7653339,18.6894842 43.7653339,18.5770292 C43.7539759,18.4758197 43.6415209,17.9810176 42.4833467,17.9697721 C41.3251724,17.9585266 40.3242103,18.1946821 40.2117553,18.4983107 C40.0993003,18.8019392 39.8743902,19.4991603 39.7281987,20.2188725 C39.5257797,21.2759496 37.4116253,25.0207017 36.2083567,26.9886645 C35.8147641,26.2239704 35.477399,25.5492403 35.4098136,25.0093438 C35.3087165,24.1997801 35.1849035,23.7048656 35.3087165,22.7378649 C35.432417,21.7706392 35.9946921,20.3988005 35.9946921,20.2863455 C35.9834466,20.1851359 35.8709916,19.6903339 34.7128174,19.6790884 C33.5544182,19.6678429 32.553681,19.9039984 32.441226,20.2076269 C32.328771,20.5112555 32.2050705,21.2309676 31.9576694,21.9281887 C31.7214014,22.6254098 28.910026,28.8779088 28.1790684,30.5085066 C27.8079668,31.3406737 27.4819597,32.0041583 27.2456917,32.4539784 C27.0095362,32.9037985 27.2344462,32.4877149 27.2119552,32.5326969 C27.0095362,32.915044 26.8970812,33.1287085 26.8970812,33.1287085 L26.8970812,33.1400665 C26.7396441,33.421204 26.5709616,33.6909836 26.4921306,33.6909836 C26.4359031,33.6909836 26.3234481,32.937535 26.5146217,31.9030613 C26.9307052,29.732567 27.9428004,26.3477834 27.9316673,26.2240829 C27.9316673,26.1678554 28.1227284,25.5717313 27.2793158,25.2682152 C26.4583941,24.9645867 26.1661236,25.4706342 26.0985381,25.4706342 C26.0310651,25.4706342 25.9748376,25.6505623 25.9748376,25.6505623 C25.9748376,25.6505623 26.8857232,21.8384496 24.2317848,21.8384496 C22.5674505,21.8384496 20.2733682,23.6489754 19.1375725,25.3020642 C18.4178604,25.6956567 16.8884721,26.5277114 15.2691199,27.4162185 C14.6506173,27.7535836 14.0096237,28.1134396 13.4023666,28.4395592 L13.2787785,28.3043882 C10.062565,24.8745102 4.11369452,22.4454818 4.36109556,17.8348261 C4.45105958,16.1592463 5.03582567,11.7397641 15.7866378,6.38690524 C24.5918658,2.00115954 31.6427954,3.20442823 32.8684426,5.88085766 C34.6114954,9.70432827 29.1011995,16.8114854 19.9474735,17.8348261 C16.461368,18.2284186 14.6282387,16.8789584 14.1672856,16.3729108 C13.683729,15.8443723 13.616256,15.8218812 13.436328,15.9230908 C13.1439449,16.0805278 13.323873,16.5528389 13.436328,16.8339764 C13.70622,17.542443 14.8307702,18.8019392 16.7425055,19.4316873 C18.4179728,19.9827169 22.5114479,20.2863455 27.4594687,18.3746102 C33.0035011,16.2267193 37.3330193,10.2666034 36.0622776,5.28484606 C34.7690449,0.21312475 26.3574095,-1.45120952 18.4068398,1.37141144 C13.6723711,3.05823671 8.54442223,5.68968413 4.85589764,9.14205318 C0.470151939,13.2354158 -0.227069172,16.8114854 0.0653138745,18.2958916 C1.08876699,23.592523 8.38698521,27.044892 11.3108157,29.597621 C11.1646242,29.676227 11.0296781,29.7549455 10.9059776,29.822531 C9.44406238,30.5421306 3.87753898,33.4548281 2.48309676,36.5359831 C0.908726509,40.0220887 2.7304978,42.529948 3.945012,42.8673131 C7.7010096,43.9131447 11.5469712,42.0351459 13.627389,38.9426329 C15.6964489,35.85012 15.4491603,31.8354758 14.4932927,30.002459 L14.4594437,29.934986 L15.6064849,29.2602559 C16.3488005,28.8216813 17.0797581,28.4168433 17.7206392,28.0681203 C17.3608956,29.0464789 17.1021366,30.2047656 16.9673031,31.8915909 C16.8098661,33.8709116 17.6195422,36.4347736 18.6878649,37.4468688 C19.1601759,37.8853309 19.722451,37.8966888 20.0710616,37.8966888 C21.3080668,37.8966888 21.8703419,36.8732357 22.4888445,35.6475885 C23.2535386,34.1519367 23.9282687,32.4201294 23.9282687,32.4201294 C23.9282687,32.4201294 23.0848561,37.1095037 25.3901839,37.1095037 C26.2335966,37.1095037 27.0770092,36.01869 27.4593563,35.4564149 L27.4593563,35.4676604 C27.4593563,35.4676604 27.4818473,35.4339239 27.5268293,35.3552054 C27.5740139,35.2854373 27.6190176,35.2142189 27.6617753,35.1416533 L27.6617753,35.1191623 C27.9991403,34.5343962 28.752589,33.1961815 29.8771391,30.9808177 C31.3276964,28.1244602 32.7222511,24.5483906 32.7222511,24.5483906 C32.7222511,24.5483906 32.8571971,25.4255398 33.2732807,26.864964 C33.5205693,27.7197346 34.0603534,28.6529988 34.4764369,29.5638844 C34.1390719,30.0361955 33.9366528,30.3062 33.9366528,30.3062 L33.9478983,30.3174455 C33.6781188,30.6773016 33.3743777,31.0597611 33.0596162,31.4419957 C31.912575,32.8139469 30.5406238,34.3771841 30.3606957,34.8270042 C30.1470312,35.3554303 30.1920132,35.7490229 30.6080968,36.0640094 C30.9117253,36.2889194 31.4515094,36.333789 32.02503,36.2889194 C33.0596162,36.221334 33.7793283,35.9627999 34.1391843,35.8052504 C34.7014594,35.6028314 35.342453,35.2992028 35.9609556,34.8493827 C37.0855058,34.0173281 37.7714814,32.8365504 37.7040084,31.2621801 C37.6702719,30.3962765 37.3891343,29.5416184 37.0405238,28.7319422 C37.1417333,28.5857507 37.2430553,28.4394467 37.3441523,28.2821222 C39.1209416,25.6842988 40.4928928,22.8280538 40.4928928,22.8280538 C40.4928928,22.8280538 40.6278389,23.7052029 41.0439224,25.1446271 C41.2574745,25.8755848 41.684916,26.6741278 42.0672631,27.461313 C40.4029288,28.8220187 39.3570972,30.3963889 38.9972411,31.4309751 C38.3337565,33.3427104 38.8510496,34.2086141 39.8294082,34.4110331 C40.2678704,34.5009971 40.8977309,34.2985781 41.3699295,34.096159 C41.9546956,33.9049855 42.6631622,33.5787535 43.3155138,33.0953094 C44.440064,32.2631422 45.5196321,31.1048556 45.4634046,29.5417308 C45.4296681,28.8220187 45.2384946,28.1135521 44.9798481,27.438822 C46.3967813,26.8540559 48.2296856,26.5166908 50.557617,26.7978284 C55.5618653,27.3825945 56.5514694,30.508844 56.3604083,31.8133222 C56.1692348,33.1179128 55.1234031,33.8375125 54.7746801,34.0624225 C54.4260696,34.2760871 54.3136146,34.354918 54.3473511,34.5122426 C54.3923331,34.7485106 54.5497701,34.7371526 54.8533986,34.6922831 C55.2694822,34.6246976 57.4848461,33.6239604 57.5748101,31.2175355 C57.7097561,28.1245727 54.7746801,24.7509221 49.5680128,24.7845462 L49.5680128,24.7845462 Z M10.9734506,37.7955918 C9.32036186,39.6061176 6.99254298,40.2920932 6.00293882,39.7073271 C4.93461615,39.0888245 5.35058727,36.4236405 7.38613555,34.5006597 C8.62314074,33.3311275 10.2312475,32.2515594 11.2883247,31.5880748 C11.5244802,31.4418832 11.8843363,31.2283312 12.3116653,30.9695722 C12.3791383,30.9247026 12.4241204,30.9020992 12.4241204,30.9020992 C12.5028389,30.8571172 12.5928029,30.8008896 12.6827669,30.7446621 C13.4362155,33.4885646 12.7165034,35.895102 10.9734506,37.7955918 L10.9734506,37.7955918 Z M23.0623651,29.5751299 C22.4888445,30.9808177 21.2743303,34.5906238 20.5433727,34.3882047 C19.9135121,34.2195222 19.5312775,31.4868653 20.4195597,28.7879448 C20.8693797,27.4271266 21.8252474,25.8078868 22.3875225,25.1780263 C23.2985206,24.1659311 24.2880123,23.8285661 24.5355258,24.2446496 C24.8279088,24.7845462 23.4222211,28.6979808 23.0623651,29.5751299 Z M33.0371251,34.3432227 C32.7897241,34.4670357 32.5648141,34.5568872 32.4636046,34.4895267 C32.384886,34.4445447 32.5647016,34.2758622 32.5647016,34.2758622 C32.5647016,34.2758622 33.8129523,32.9376474 34.3077544,32.3191448 C34.5888919,31.9594012 34.926257,31.5433177 35.2861131,31.0708941 L35.2861131,31.2058402 C35.2862255,32.82508 33.7343463,33.9046481 33.0371251,34.3432227 Z M40.7289359,32.5889244 C40.5490079,32.4539784 40.5716114,32.0378948 41.178756,30.7334166 C41.415024,30.2161236 41.9546956,29.3502199 42.8880723,28.5292983 C43.0005273,28.8666633 43.0681128,29.1926704 43.0567548,29.4964114 C43.0456218,31.5206018 41.6061975,32.2740504 40.7289359,32.5889244 Z" id="Shape"></path></g></g></g></svg>