<svg xmlns="http://www.w3.org/2000/svg" xmlns:xlink="http://www.w3.org/1999/xlink" width="344px" height="26px" viewBox="0 0 344 26"><title>Group 23</title><g id="Page-1" stroke="none" stroke-width="1" fill="none" fill-rule="evenodd" opacity="0.36847654"><g id="Artboard" transform="translate(-547.000000, -7927.000000)" fill="#000000"><g id="Group-20" transform="translate(415.000000, 7927.000000)"><g id="Group-23" transform="translate(132.000000, 0.000000)"><g id="visa" transform="translate(218.000000, 3.000000)" fill-rule="nonzero"><path d="M32.5405033,0.368862383 C34.3708285,0.368862383 36.1265971,1.03659517 36.1265971,1.03659517 L36.1265971,1.03659517 L35.5575904,4.32528158 C33.8513898,3.3851302 29.9682983,3.16268915 29.9678886,4.89428824 C29.9678886,6.62547767 35.532192,6.99621275 35.532192,10.9780304 C35.532192,14.8123733 31.4274788,16.2211666 28.7065701,16.2211666 C25.9864807,16.2211666 24.206133,15.3563912 24.206133,15.3563912 L24.206133,15.3563912 L24.7988995,11.9177721 C26.4313628,13.2282489 31.3779109,13.6006226 31.3779109,11.5224579 C31.3779109,9.44429322 25.8631754,9.39513498 25.8631754,5.43871577 C25.8631754,1.2336378 30.5618841,0.368862383 32.5405033,0.368862383 Z M24.2417727,0.642509931 L21.7494498,15.956941 L17.7623067,15.956941 L20.25422,0.642509931 L24.2417727,0.642509931 Z M6.92455291,0.642100279 C8.16854647,0.642100279 8.60153808,1.355782 8.74658065,1.7562594 C8.80314534,1.91284565 8.81591628,2.02139863 8.81591628,2.02139863 L8.81591628,2.02139863 L10.1467536,8.85386238 L10.1575266,8.90805872 L10.1575266,8.90805872 L10.157117,8.90764907 L10.6069149,11.1758923 L14.408076,0.642509931 L18.6991809,0.642509931 L12.3557194,15.9573507 L8.20143825,15.9573507 L4.73742078,2.65226274 C2.48843119,1.30164003 0.566753569,0.90181966 0.566753569,0.90181966 L0.566753569,0.90181966 L0.640490932,0.642509931 Z M46.2380379,0.642100279 L49.4300464,15.956941 L45.7689863,15.956941 L45.301983,13.6821434 L40.2333586,13.6821434 L39.4021747,15.956941 L35.2458453,15.956941 L41.192354,1.78339081 C41.192354,1.78339081 41.5528478,0.642100279 43.0329205,0.642100279 L43.0329205,0.642100279 L46.2380379,0.642100279 Z M43.4765736,4.80867097 L41.3816132,10.5397027 L44.6551425,10.5397027 L43.4765736,4.80867097 Z" id="Combined-Shape"/></g><g id="paypal" transform="translate(101.000000, 3.000000)" fill-rule="nonzero"><g id="Group" transform="translate(38.260333, 10.987848) scale(-1, 1) rotate(-180.000000) translate(-38.260333, -10.987848) translate(0.022238, 0.511658)"><g id="Clipped"><g id="Group" transform="translate(0.198232, 0.756679)"><path d="M51.1415842,14.326587 C50.8278298,12.2664639 49.254618,12.2664639 47.7332052,12.2664639 L46.8674207,12.2664639 L47.4749499,16.112915 C47.5119492,16.3452709 47.7117456,16.5162078 47.9470614,16.5162078 L48.3444343,16.5162078 C49.3804157,16.5162078 50.3586782,16.5162078 50.8633491,15.9264384 C51.1645238,15.5734647 51.2555421,15.0495541 51.1415842,14.326587 M50.479296,19.7018507 L44.7399589,19.7018507 C44.3472937,19.7016557 44.0129413,19.4162329 43.951133,19.0284628 L41.6320145,4.31234645 C41.6104155,4.17428167 41.6502158,4.03367136 41.7409724,3.92740927 C41.8317291,3.82114717 41.9643823,3.75984097 42.1041261,3.75957636 L45.0492733,3.75957636 C45.3238084,3.75957636 45.5576442,3.95937278 45.6005634,4.23020792 L46.2591516,8.40373315 C46.3198305,8.79074622 46.6543046,9.07712109 47.0464975,9.07712109 L48.862425,9.07712109 C52.6437572,9.07712109 54.8252382,10.9056283 55.395028,14.5323033 C55.6518034,16.117355 55.4053878,17.3634926 54.6631811,18.235937 C53.8469757,19.1949598 52.4003016,19.7025907 50.480036,19.7025907" id="Shape"/><path d="M10.2055176,14.326587 C9.89176321,12.2664639 8.3185514,12.2664639 6.79639867,12.2664639 L5.93061418,12.2664639 L6.53814329,16.112915 C6.57514263,16.3452709 6.77493905,16.5162078 7.01025484,16.5162078 L7.40762772,16.5162078 C8.44360915,16.5162078 9.42187163,16.5162078 9.92654259,15.9264384 C10.2284572,15.5734647 10.3194755,15.0495541 10.2055176,14.326587 M9.54322945,19.7018507 L3.80389228,19.7018507 C3.41169931,19.7018507 3.0772253,19.4162158 3.0158064,19.0284628 L0.695947965,4.31234645 C0.674086013,4.17423614 0.713790738,4.03347809 0.804603139,3.92715072 C0.89541554,3.82082335 1.0282296,3.75957636 1.16805951,3.75957636 L3.9089704,3.75957636 C4.30116337,3.75957636 4.63489739,4.04521124 4.69631629,4.43296429 L5.32308506,8.40299316 C5.38376398,8.79074622 5.71823798,9.0763811 6.11043096,9.0763811 L7.92635842,9.0763811 C11.7076907,9.0763811 13.8891716,10.9056283 14.4589614,14.5323033 C14.7157368,16.117355 14.4693212,17.3634926 13.7271145,18.235937 C12.9109091,19.1949598 11.464235,19.7025907 9.54396944,19.7025907 M22.8681707,9.0430817 C22.6017755,7.47282983 21.3563778,6.41834872 19.7661463,6.41834872 C18.9691806,6.41834872 18.330572,6.67512412 17.9206194,7.16055542 C17.5136267,7.64154681 17.3611894,8.32751452 17.4899471,9.09044085 C17.7371026,10.647373 19.00396,11.7351535 20.5697719,11.7351535 C21.3504579,11.7351535 21.9831466,11.4761581 22.4019791,10.9862869 C22.8230315,10.4927157 22.9887886,9.80304808 22.8681707,9.0430817 M26.6983421,14.3931858 L23.9500313,14.3931858 C23.7139659,14.3934685 23.5129258,14.2216421 23.4764398,13.9884131 L23.356562,13.2203069 L23.1641654,13.4985419 C22.5692161,14.3621064 21.2424198,14.6514412 19.9178436,14.6514412 C16.881678,14.6514412 14.2880244,12.3500824 13.7833535,9.12374025 C13.5206582,7.51278911 13.8936115,5.97435668 14.8067552,4.90063591 C15.6451601,3.91423359 16.8417187,3.50354094 18.2676731,3.50354094 C20.7155493,3.50354094 22.072685,5.07527278 22.072685,5.07527278 L21.9498472,4.31160647 C21.9279648,4.1733684 21.9677638,4.03248455 22.0587425,3.92612914 C22.1497212,3.81977373 22.2827396,3.75863175 22.4226987,3.75883637 L24.8972144,3.75883637 C25.2894073,3.75883637 25.6238813,4.04373127 25.6853002,4.43222431 L27.1711936,13.8396758 C27.1928324,13.9779959 27.1528434,14.118857 27.0617545,14.2251749 C26.9706655,14.3314928 26.8376045,14.3926135 26.6976021,14.3924459" id="Shape"/><path d="M63.8042373,9.0430817 C63.5378421,7.47282983 62.2924444,6.41834872 60.7022129,6.41834872 C59.9052471,6.41834872 59.2666386,6.67512412 58.8566859,7.16055542 C58.4496932,7.64154681 58.297256,8.32751452 58.4260137,9.09044085 C58.6731692,10.647373 59.9392865,11.7351535 61.5058385,11.7351535 C62.2865245,11.7351535 62.9192131,11.4761581 63.3380456,10.9862869 C63.7590981,10.4927157 63.9248551,9.80304808 63.8042373,9.0430817 M67.6344087,14.3931858 L64.8860979,14.3931858 C64.6500324,14.3934685 64.4489924,14.2216421 64.4125064,13.9884131 L64.2926285,13.2203069 L64.100232,13.4985419 C63.5052826,14.3621064 62.1784864,14.6514412 60.8539102,14.6514412 C57.8184845,14.6514412 55.224831,12.3500824 54.7194201,9.12374025 C54.4567248,7.51278911 54.8304181,5.97435668 55.7435617,4.90063591 C56.5819667,3.91423359 57.7785253,3.50354094 59.2044797,3.50354094 C61.6530958,3.50354094 63.0102315,5.07527278 63.0102315,5.07527278 L62.8873937,4.31160647 C62.8650223,4.17353312 62.90444,4.03260296 62.9951986,3.92617175 C63.0859573,3.81974053 63.2188916,3.75855611 63.3587653,3.75883637 L65.832541,3.75883637 C66.2247339,3.75883637 66.5592079,4.04373127 66.6213668,4.43222431 L68.1072602,13.8396758 C68.128899,13.9779959 68.08891,14.118857 67.9978211,14.2251749 C67.9067321,14.3314928 67.773671,14.3926135 67.6336687,14.3924459" id="Shape"/><path d="M41.3360198,14.3924459 L38.5729093,14.3924459 C38.3087341,14.3924459 38.0623185,14.2614682 37.9143211,14.0424321 L34.1033894,8.43037267 L32.4879984,13.823396 C32.38679,14.1611567 32.0761898,14.3926787 31.7235921,14.3931858 L29.0085807,14.3931858 C28.8541175,14.3931858 28.7091789,14.318519 28.6193435,14.1928668 C28.529508,14.0672146 28.5058126,13.9059395 28.5557088,13.7597572 L31.5970543,4.83107716 L28.7362656,0.794449481 C28.6332121,0.648390361 28.6201081,0.457086452 28.702283,0.298339545 C28.7844579,0.139592637 28.9482238,0.0398449208 29.1269786,0.0396630043 L31.8871291,0.0396630043 C32.1476045,0.0396630043 32.3925401,0.167680711 32.5420174,0.382276866 L41.7282128,13.6413593 C41.8298752,13.7874447 41.8419626,13.9779133 41.7595829,14.1356782 C41.6772031,14.2934431 41.5139979,14.3923796 41.3360198,14.3924459" id="Path"/><path d="M70.8733306,19.297078 L68.5172129,4.31160647 C68.4955941,4.17341412 68.5354888,4.03267853 68.6264115,3.92638859 C68.7173342,3.82009864 68.8501913,3.75883637 68.9900644,3.75883637 L71.3587619,3.75883637 C71.7509549,3.75883637 72.0854289,4.04447125 72.1468478,4.43222431 L74.4696662,19.1490806 C74.4915485,19.2873187 74.4517496,19.4282026 74.3607709,19.534558 C74.2697921,19.6409134 74.1367738,19.7020554 73.9968147,19.7018523 L71.3461822,19.7018523 C71.1104063,19.7024512 70.9095188,19.5308008 70.8733306,19.297818" id="Path"/></g></g></g></g><g id="apple-pay" transform="translate(0.000000, 2.000000)" fill-rule="nonzero"><path d="M49.412399,2.97183311 C50.0427878,2.16133317 50.4930656,1.08066659 50.3579823,-3.38250175e-13 C49.412399,0.0450277744 48.2867046,0.630388842 47.611288,1.39586101 C47.0259269,2.07127762 46.4855937,3.19697198 46.620677,4.2326108 C47.7013436,4.36769412 48.7369824,3.78233305 49.412399,2.97183311 M50.3579823,4.50277744 C48.8270379,4.41272189 47.5212325,5.35830516 46.8007881,5.35830516 C46.0803437,5.35830516 44.9546493,4.54780522 43.7388994,4.54780522 C42.1629273,4.59283299 40.7220385,5.44836071 39.9115386,6.88924949 C38.2905387,9.72599928 39.4612608,13.9135823 41.0822607,16.2099988 C41.8477329,17.3356932 42.7933161,18.5964708 44.0090661,18.5514431 C45.1797882,18.5064153 45.6300659,17.7859709 47.0259269,17.7859709 C48.421788,17.7859709 48.8270379,18.5514431 50.0878156,18.5064153 C51.3485933,18.4613875 52.1590932,17.3807209 52.9245654,16.2099988 C53.8251209,14.9041933 54.1853431,13.6434157 54.1853431,13.5983879 C54.1403153,13.5533601 51.7088155,12.6528046 51.7088155,9.8610826 C51.6637877,7.51963833 53.599982,6.39394397 53.6900376,6.34891619 C52.6543987,4.72791631 50.9433433,4.54780522 50.3579823,4.50277744" id="Shape"/><path d="M6.39905091,1.30580546 C9.73110622,1.30580546 12.0275227,3.60222195 12.0275227,6.88924949 C12.0275227,10.2213048 9.68607844,12.5177213 6.30899536,12.5177213 L2.66174563,12.5177213 L2.66174563,18.3263042 L0.00510694029,18.3263042 L0.00510694029,1.30580546 L6.39905091,1.30580546 Z M2.66174563,10.3113603 L5.67860652,10.3113603 C7.97502301,10.3113603 9.28082847,9.05058266 9.28082847,6.93427726 C9.28082847,4.77294409 7.97502301,3.55719418 5.67860652,3.55719418 L2.61671786,3.55719418 L2.61671786,10.3113603 L2.66174563,10.3113603 L2.66174563,10.3113603 Z M12.7029393,14.8591656 C12.7029393,12.6978324 14.368967,11.3469992 17.3408001,11.1668881 L20.762911,10.986777 L20.762911,10.0411937 C20.762911,8.64533269 19.8173277,7.83483275 18.2863834,7.83483275 C16.8004668,7.83483275 15.8999113,8.55527714 15.6747724,9.63594373 L13.2432726,9.63594373 C13.3783559,7.38455501 15.3145502,5.71852735 18.3764389,5.71852735 C21.3932998,5.71852735 23.3294941,7.29449946 23.3294941,9.81605482 L23.3294941,18.371332 L20.8979943,18.371332 L20.8979943,16.3450821 L20.8529665,16.3450821 C20.1325221,17.7409431 18.55655,18.5964708 16.9355501,18.5964708 C14.4139948,18.5964708 12.7029393,17.0655265 12.7029393,14.8591656 L12.7029393,14.8591656 Z M20.762911,13.7334712 L20.762911,12.7428602 L17.7010223,12.9229713 C16.170078,13.0130268 15.3145502,13.6884434 15.3145502,14.76911 C15.3145502,15.8497766 16.2151057,16.570221 17.565939,16.570221 C19.3670499,16.570221 20.762911,15.3544711 20.762911,13.7334712 L20.762911,13.7334712 Z M25.5808828,22.964165 L25.5808828,20.8928873 C25.7609939,20.9379151 26.2112717,20.9379151 26.3913828,20.9379151 C27.5621049,20.9379151 28.1924937,20.4426096 28.5977437,19.1818319 C28.5977437,19.1368041 28.8228826,18.4163597 28.8228826,18.4163597 L24.3201051,5.988694 L27.0667994,5.988694 L30.2187436,16.1199432 L30.2637714,16.1199432 L33.4157156,5.988694 L36.117382,5.988694 L31.4795213,19.0917764 C30.3988547,22.1086372 29.1831048,23.0542205 26.6165216,23.0542205 C26.4364105,23.0091927 25.8060217,23.0091927 25.5808828,22.964165 Z" id="Shape"/></g><g id="Group-22" transform="translate(312.000000, 0.000000)"><path d="M22.0087045,0 C27.4263292,0 31.8181818,4.4771525 31.8181818,10 C31.8181818,15.5228475 27.4263292,20 22.0087045,20 C19.7032351,20 17.5835255,19.1892205 15.9089967,17.8321031 C14.2354961,19.1888992 12.1154034,20 9.80947732,20 C4.39185259,20 -8.8817842e-15,15.5228475 -8.8817842e-15,10 C-8.8817842e-15,4.4771525 4.39185259,0 9.80947732,0 C12.1154034,0 14.2354961,0.8111008 15.9101977,2.1687035 C17.5835255,0.81077954 19.7032351,0 22.0087045,0 Z M15.9100899,3.24392815 L15.8351763,3.32590014 C14.2779776,5.09597522 13.3308282,7.43523002 13.3308282,10 C13.3308282,12.6045605 14.3075942,14.9765542 15.9080743,16.7560718 C17.5105876,14.9765542 18.4873537,12.6045605 18.4873537,10 C18.4873537,7.39543949 17.5105876,5.02344584 15.9100899,3.24392815 Z" id="Combined-Shape"/></g></g></g></g></g></svg>