<svg xmlns="http://www.w3.org/2000/svg" xmlns:xlink="http://www.w3.org/1999/xlink" width="161px" height="127px" viewBox="0 0 161 127"><title>svg0 5</title><g id="&#x1F336;-Templates" stroke="none" stroke-width="1" fill="none" fill-rule="evenodd"><g id="Artboard-Copy-4" transform="translate(-880.000000, -15826.000000)" fill="#212121"><g id="Group-52-Copy" transform="translate(744.000000, 15775.000000)"><g id="svg0-5" transform="translate(136.000000, 51.000000)"><g id="Group-69" transform="translate(0.960000, 0.000000)"><path d="M79.3894619,0 C93.4116745,0 104.778924,11.1749726 104.778924,24.96 C104.778924,38.7450273 93.4116745,49.92 79.3894619,49.92 C65.3672493,49.92 54,38.7450273 54,24.96 C54,11.1749726 65.3672493,0 79.3894619,0 Z M79.8670229,12.2117168 L69.240297,26.6027901 C69.1161321,26.7710551 69.0982345,26.9941166 69.1933157,27.1795402 C69.2889562,27.3660705 69.4819152,27.4828598 69.6922125,27.4828598 L78.575596,27.4828598 L77.5263467,36.8315223 C77.4983816,37.0805988 77.6432407,37.3174979 77.8792658,37.4082724 C77.9452634,37.4337334 78.0134982,37.4459105 78.0817329,37.4459105 C78.256235,37.4459105 78.4257033,37.365099 78.5336484,37.2189745 L89.1603743,22.827901 C89.2845392,22.6596361 89.3024368,22.4365745 89.2073555,22.251151 C89.111715,22.0646206 88.9187561,21.9478315 88.7084587,21.9478315 L79.8250753,21.9478315 L80.8743246,12.5991688 C80.9022897,12.3500925 80.7574306,12.1131933 80.5214054,12.0224188 C80.2848211,11.9305374 80.0169156,12.0091348 79.8670229,12.2117168 Z" id="Combined-Shape"></path><g id="Group-3" transform="translate(0.040000, 63.000000)" fill-rule="nonzero"><path d="M13.7956598,63.6525097 C15.9136656,63.6525097 17.8026979,63.2905405 19.4627565,62.5666023 C21.1228151,61.8426641 22.4728054,60.8484556 23.5127271,59.5839768 C24.5526489,58.3194981 25.2061778,56.8764479 25.4733136,55.2548263 C25.7022873,53.8648649 25.597341,52.6462355 25.1584749,51.5989382 C24.7196089,50.5516409 24.032688,49.7311776 23.0977125,49.1375483 C22.1627369,48.5439189 21.0655717,48.2277992 19.8062169,48.1891892 L19.8062169,48.1891892 L19.8634603,47.8996139 C21.609384,47.5521236 23.1000976,46.7895753 24.335601,45.6119691 C25.5711045,44.4343629 26.3319647,43.034749 26.6181817,41.4131274 C26.9902638,39.1544402 26.4130595,37.3542471 24.8865688,36.0125483 C23.3600781,34.6708494 20.9224632,34 17.5737242,34 L17.5737242,34 L4.86568912,34 L0,63.6525097 L13.7956598,63.6525097 Z M14.1391202,45.988417 L10.8762463,45.988417 L11.7921407,40.3127413 L15.1695014,40.3127413 C16.1426392,40.3127413 16.9178103,40.5540541 17.4950146,41.0366795 C18.0722189,41.519305 18.2892668,42.2239382 18.1461583,43.1505792 C18.0030498,44.0482625 17.5570283,44.7456564 16.8080938,45.2427606 C16.0591592,45.7398649 15.1695014,45.988417 14.1391202,45.988417 L14.1391202,45.988417 Z M12.7652785,57.2239382 L9.04445743,57.2239382 L10.0175953,50.969112 L13.8529032,50.969112 C15.0836363,50.969112 15.9971456,51.2490347 16.593431,51.8088803 C17.1897164,52.3687259 17.401994,53.1698842 17.2302638,54.2123552 C16.9345063,56.2200772 15.4461778,57.2239382 12.7652785,57.2239382 L12.7652785,57.2239382 Z M38.5661701,64 C41.123042,64 43.4175483,63.601834 45.4496891,62.8055019 C47.4818298,62.0091699 49.1466588,60.83639 50.4441759,59.2871622 C51.741693,57.7379344 52.5717223,55.8339768 52.9342638,53.5752896 L52.9342638,53.5752896 L56.1398943,34 L48.2403049,34 L45.0919178,53.2277992 C44.9201876,54.3281853 44.3525239,55.2210425 43.3889266,55.9063707 C42.4253294,56.5916988 41.1993665,56.9343629 39.7110381,56.9343629 C38.2513313,56.9343629 37.1660919,56.5916988 36.4553196,55.9063707 C35.7445474,55.2210425 35.4750264,54.3281853 35.6467566,53.2277992 L35.6467566,53.2277992 L38.7951437,34 L30.8383109,34 L27.6326804,53.5752896 C27.0888681,56.9633205 27.8091809,59.5477799 29.7936188,61.328668 C31.7780567,63.109556 34.7022405,64 38.5661701,64 Z M62.0773255,63.6525097 L64.6532786,48.0733591 L64.8250088,48.0733591 L72.839085,63.6525097 L79.4793196,63.6525097 L84.3450087,34 L76.3881759,34 L73.8694662,49.5212355 L73.6404926,49.5212355 L65.7409032,34 L58.9861818,34 L54.1204927,63.6525097 L62.0773255,63.6525097 Z M93.7742874,63.6525097 C96.7509443,63.6525097 99.4103773,63.0830116 101.752586,61.9440154 C104.094796,60.8050193 106.02199,59.1592664 107.53417,57.0067568 C109.04635,54.8542471 110.050495,52.2625483 110.546604,49.2316602 C111.061795,46.0849421 110.894835,43.3725869 110.045724,41.0945946 C109.196614,38.8166023 107.760758,37.0646718 105.738158,35.8388031 C103.715558,34.6129344 101.196848,34 98.1820293,34 L98.1820293,34 L87.1912962,34 L82.3256071,63.6525097 L93.7742874,63.6525097 Z M94.289478,56.8185328 L91.3986862,56.8185328 L94.0318827,40.8339768 L96.9799179,40.8339768 C98.5064086,40.8339768 99.7514526,41.0487452 100.71505,41.4782819 C101.678647,41.9078185 102.332176,42.6703668 102.675636,43.7659266 C103.019097,44.8614865 103.028637,46.4131274 102.704258,48.4208494 C102.360798,50.5444015 101.80506,52.2166988 101.037044,53.4377413 C100.269028,54.6587838 99.3149716,55.5275097 98.1748739,56.0439189 C97.0347761,56.5603282 95.7396442,56.8185328 94.289478,56.8185328 L94.289478,56.8185328 Z M130.737642,63.6525097 L131.825267,57.1660232 L119.975883,57.1660232 L123.753947,34 L115.797114,34 L110.931425,63.6525097 L130.737642,63.6525097 Z M154.077067,63.6525097 L155.164692,57.1660232 L142.055953,57.1660232 L142.857361,52.0694981 L154.935718,52.0694981 L156.023343,45.5830116 L143.944985,45.5830116 L144.746393,40.4864865 L157.912375,40.4864865 L159,34 L137.877185,34 L133.011496,63.6525097 L154.077067,63.6525097 Z" id="BUNDLE"></path><path d="M26.0911535,30 C29.8160522,30 32.8604406,29.2261905 35.2243186,27.6785714 C37.5881966,26.1309524 39.0136867,23.9142857 39.5007888,21.0285714 C39.8732787,18.8 39.4673603,16.9190476 38.2830335,15.3857143 C37.0987067,13.852381 34.9449512,12.7428571 31.8217669,12.0571429 L31.8217669,12.0571429 L29.5295215,11.5428571 C26.8743373,10.9809524 25.7091126,10.047619 26.0338473,8.74285714 C26.1484596,8.08571429 26.5185617,7.55 27.1441537,7.13571429 C27.7697456,6.72142857 28.6985826,6.51428571 29.9306644,6.51428571 C31.2200525,6.51428571 32.1369506,6.78333333 32.6813589,7.32142857 C33.2257672,7.85952381 33.4549917,8.6 33.3690325,9.54285714 L33.3690325,9.54285714 L40.9907483,9.54285714 C41.3154831,7.61904762 41.1268504,5.94285714 40.4248502,4.51428571 C39.7228501,3.08571429 38.5719519,1.97619048 36.9721557,1.18571429 C35.3723594,0.395238095 33.3881345,0 31.019481,0 C28.6890315,0 26.5663168,0.388095238 24.6513368,1.16428571 C22.7363569,1.94047619 21.1604382,3.02619048 19.9235808,4.42142857 C18.6867234,5.81666667 17.9154783,7.44761905 17.6098456,9.31428571 C17.2373558,11.6 17.6862538,13.4 18.9565398,14.7142857 C20.2268257,16.0285714 22.1083771,16.9714286 24.601194,17.5428571 L24.601194,17.5428571 L27.4091945,18.1714286 C28.9851132,18.5142857 30.0667665,18.9119048 30.6541544,19.3642857 C31.2415423,19.8166667 31.4779301,20.3714286 31.3633178,21.0285714 C31.2487055,21.7428571 30.8260728,22.3309524 30.0954196,22.7928571 C29.3647664,23.2547619 28.3547458,23.4857143 27.0653577,23.4857143 C25.5467452,23.4857143 24.4077858,23.1357143 23.6484795,22.4357143 C22.8891732,21.7357143 22.5954793,20.7142857 22.7673977,19.3714286 L22.7673977,19.3714286 L15.202988,19.3714286 C14.8018451,21.8095238 14.9952533,23.8119048 15.7832126,25.3785714 C16.5711719,26.9452381 17.8510089,28.1071429 19.6227236,28.8642857 C21.3944382,29.6214286 23.5505815,30 26.0911535,30 Z M52.779912,30 C55.339586,30 57.6366069,29.6071429 59.6709746,28.8214286 C61.7053424,28.0357143 63.3719958,26.8785714 64.6709348,25.35 C65.9698739,23.8214286 66.8008128,21.9428571 67.1637517,19.7142857 L67.1637517,19.7142857 L70.3728952,0.4 L62.4646487,0.4 L59.3128113,19.3714286 C59.1408929,20.4571429 58.5726071,21.3380952 57.6079538,22.0142857 C56.6433005,22.6904762 55.4159942,23.0285714 53.9260347,23.0285714 C52.4647283,23.0285714 51.3782995,22.6904762 50.6667483,22.0142857 C49.9551971,21.3380952 49.6853808,20.4571429 49.8572992,19.3714286 L49.8572992,19.3714286 L53.0091365,0.4 L45.0435839,0.4 L41.8344404,19.7142857 C41.2900321,23.0571429 42.0111343,25.6071429 43.997747,27.3642857 C45.9843596,29.1214286 48.911748,30 52.779912,30 Z M76.3168332,29.6571429 L77.7781396,20.9714286 L82.1620588,20.9714286 C84.4161001,20.9714286 86.4528556,20.5595238 88.2723254,19.7357143 C90.0917951,18.9119048 91.5913057,17.7357143 92.7708569,16.2071429 C93.9504082,14.6785714 94.7121022,12.8571429 95.055939,10.7428571 C95.3997758,8.66666667 95.2469595,6.85238095 94.5974899,5.3 C93.9480204,3.74761905 92.8783059,2.54285714 91.3883464,1.68571429 C89.8983869,0.828571429 88.0645907,0.4 85.8869576,0.4 L85.8869576,0.4 L73.2223019,0.4 L68.3512805,29.6571429 L76.3168332,29.6571429 Z M81.5889975,14.8 L78.80965,14.8 L80.1563442,6.74285714 L82.9643447,6.74285714 C84.368345,6.74285714 85.3998554,7.0952381 86.058876,7.8 C86.7178965,8.5047619 86.947121,9.48571429 86.7465496,10.7428571 C86.5459781,12 85.9944066,12.9904762 85.0918349,13.7142857 C84.1892633,14.4380952 83.0216509,14.8 81.5889975,14.8 L81.5889975,14.8 Z M114.982574,29.6571429 L116.07139,23.2571429 L102.948286,23.2571429 L103.750571,18.2285714 L115.842166,18.2285714 L116.930982,11.8285714 L104.839388,11.8285714 L105.641674,6.8 L118.822085,6.8 L119.910901,0.4 L98.7649378,0.4 L93.8939164,29.6571429 L114.982574,29.6571429 Z M126.026758,29.6571429 L127.645656,20 L130.39635,20 L133.935004,29.6571429 L142.58823,29.6571429 L138.447862,18.7428571 C140.138393,17.9904762 141.540006,16.9095238 142.6527,15.5 C143.765394,14.0904762 144.488884,12.3714286 144.82317,10.3428571 C145.167006,8.26666667 145.009415,6.48571429 144.350394,5 C143.691373,3.51428571 142.612108,2.37619048 141.112597,1.58571429 C139.613087,0.795238095 137.774515,0.4 135.596882,0.4 L135.596882,0.4 L122.932226,0.4 L118.061205,29.6571429 L126.026758,29.6571429 Z M131.47084,13.8285714 L128.677166,13.8285714 L129.866269,6.74285714 L132.674269,6.74285714 C134.049616,6.74285714 135.083515,7.02857143 135.775964,7.6 C136.468413,8.17142857 136.714352,9.08571429 136.51378,10.3428571 C136.313209,11.6 135.773576,12.4952381 134.894882,13.0285714 C134.016188,13.5619048 132.874841,13.8285714 131.47084,13.8285714 L131.47084,13.8285714 Z" id="SUPER"></path></g></g></g></g></g></g></svg>