<svg xmlns="http://www.w3.org/2000/svg" width="80" height="20" viewBox="0 0 80 20" fill="none"><g clip-path="url(https://storage.googleapis.com/mannequin/blobs/9b854f52-2b3b-4c7e-a961-2a118411e521.svg)" fill="#010101"><path d="M19.063 8.111c-1.068 0-1.933.847-1.933 1.89 0 1.044.866 1.89 1.933 1.89 1.068 0 1.933-.846 1.933-1.89.001-1.043-.865-1.89-1.933-1.89zm-4.342.209c-.949 0-1.719.753-1.719 1.68 0 .929.77 1.681 1.72 1.681.948 0 1.718-.752 1.718-1.68 0-.928-.77-1.68-1.719-1.68zm0-4.264c-.949 0-1.719.752-1.719 1.68 0 .928.77 1.68 1.72 1.68.948 0 1.718-.752 1.718-1.68 0-.928-.77-1.68-1.719-1.68zm0 8.508c-.949 0-1.719.752-1.719 1.68 0 .928.77 1.68 1.72 1.68.948 0 1.718-.752 1.718-1.68 0-.928-.77-1.68-1.719-1.68zM10.379 8.53c-.831 0-1.505.658-1.505 1.47 0 .813.674 1.472 1.505 1.472.831 0 1.505-.659 1.505-1.471 0-.813-.675-1.471-1.505-1.471zm0-4.265c-.831 0-1.505.658-1.505 1.471 0 .813.674 1.471 1.505 1.471.831 0 1.505-.658 1.505-1.471 0-.813-.675-1.471-1.505-1.471zm0 8.529c-.831 0-1.505.659-1.505 1.471 0 .813.674 1.472 1.505 1.472.831 0 1.505-.659 1.505-1.472 0-.812-.675-1.47-1.505-1.47zm0 4.264c-.831 0-1.505.658-1.505 1.47 0 .814.674 1.472 1.505 1.472.831 0 1.505-.658 1.505-1.471 0-.812-.675-1.471-1.505-1.471zm0-17.058c-.831 0-1.505.658-1.505 1.471 0 .813.674 1.471 1.505 1.471.831 0 1.505-.658 1.505-1.47C11.884.657 11.209 0 10.379 0zM6.036 8.737c-.712 0-1.291.565-1.291 1.262 0 .697.577 1.262 1.29 1.262.713 0 1.292-.564 1.292-1.262 0-.696-.578-1.262-1.291-1.262zm0 4.245c-.712 0-1.291.565-1.291 1.262 0 .697.577 1.263 1.29 1.263.713 0 1.292-.565 1.292-1.263 0-.696-.578-1.262-1.291-1.262zm0-8.488c-.712 0-1.291.564-1.291 1.262 0 .697.577 1.262 1.29 1.262.713 0 1.292-.565 1.292-1.262 0-.698-.578-1.262-1.291-1.262zM2.075 8.946C1.481 8.946 1 9.418 1 10s.481 1.052 1.075 1.052c.595 0 1.076-.47 1.076-1.052a1.063 1.063 0 00-1.076-1.053zm35.488-6.13c-.714 0-1.291.566-1.291 1.262 0 .696.578 1.262 1.29 1.262.714 0 1.291-.566 1.291-1.262 0-.696-.577-1.262-1.29-1.262zm27.355 0c-.713 0-1.29.566-1.29 1.262 0 .696.578 1.262 1.29 1.262.714 0 1.291-.566 1.291-1.262 0-.696-.577-1.262-1.29-1.262zM38.592 7.265h-2.059V18.54h2.06V7.265zm27.356 0H63.89V18.54h2.06V7.265zm9.161 2.013V7.265h-3.03V2.902h-2.057v4.363h-1.657v2.013h1.657v6.03c0 1.782 1.481 3.23 3.304 3.23h1.783v-2.012h-1.623c-.828 0-1.407-.583-1.407-1.418v-5.83h3.03zm-27.15 0V7.265h-3.03V2.902h-2.06v4.363h-1.656v2.013h1.657v6.03c0 1.782 1.482 3.23 3.304 3.23h1.783v-2.012h-1.623c-.828 0-1.407-.583-1.407-1.418v-5.83h3.032zM28.59 4.94v2.325h-1.658v2.013h1.657v9.262h2.059V9.278h3.314V7.265h-3.314V4.94c0-.848.604-1.488 1.407-1.488h1.907V1.44H32.17c-1.975 0-3.58 1.57-3.58 3.5zm27.601 11.73c-2.064 0-3.737-1.687-3.739-3.77.002-2.084 1.675-3.771 3.74-3.771 2.063 0 3.737 1.687 3.739 3.77-.002 2.084-1.676 3.771-3.74 3.771zm.197-9.598c-1.866-.001-3.17.84-3.947 1.794V1.46h-2.104v17.08h2.104v-1.607c.777.956 2.08 1.795 3.947 1.795 3.257-.001 5.646-2.499 5.646-5.827-.001-3.33-2.39-5.827-5.646-5.829zm21.342 10.46h.257c.146 0 .222-.064.222-.177 0-.11-.076-.175-.222-.175h-.257v.352zm.59.637l-.332-.505h-.26v.505h-.14v-1.118h.403c.217 0 .363.122.363.307a.287.287 0 01-.217.285l.344.528h-.161v-.002zm.538-.536c0-.497-.376-.867-.883-.867-.505 0-.88.37-.88.867s.375.87.88.87c.506 0 .883-.373.883-.87zm-1.905 0c0-.575.433-1 1.022-1s1.025.426 1.025 1c0 .576-.436 1-1.025 1s-1.022-.424-1.022-1z"/></g><defs><clipPath id="clip0"><path fill="#fff" transform="translate(1)" d="M0 0h78v20H0z"/></clipPath></defs></svg>