<svg xmlns="http://www.w3.org/2000/svg" viewBox="0 0 328 65">
   <path d="M6,57.172V5.453H19.102L31.289,23.059,43.445,5.453H56.582V57.172H43.219V25.141L31.289,42.293,19.328,25.141V57.172Zm0,0"></path>
   <path d="M65.594,53.688V41.348q5.337,4.881,11.094,4.882a6.34093,6.34093,0,0,0,4.429-1.55,6.10729,6.10729,0,0,0,1.703-4.735V5.453H96.145v33.66a24.44771,24.44771,0,0,1-1.231,8.141,15.585,15.585,0,0,1-3.008,5.414,14.06069,14.06069,0,0,1-4.316,3.141,17.37012,17.37012,0,0,1-4.621,1.55,26.45724,26.45724,0,0,1-4.352.344,24.13,24.13,0,0,1-13.023-4.015Zm0,0"></path>
   <path d="M104.512,5.453h13.933l8.86,32.637,9.199-32.637h11.512l9.199,32.637,8.859-32.637h13.934l-16.66,51.719H151.195l-8.933-29.606-8.938,29.606H121.172Zm0,0"></path>
   <path d="M188.035,57.172V5.453h36.043V16.32H201.359v9.539h19.727V36.766H201.359V46.23h22.719V57.172Zm0,0"></path>
   <path d="M234.715,57.172V5.453h17.531q20.478,0,20.481,14.5a11.04344,11.04344,0,0,1-.813,4.395,7.40324,7.40324,0,0,1-2.254,3.007,15.84758,15.84758,0,0,1-2.441,1.629,17.91816,17.91816,0,0,1-2.328.965q10.371,2.95349,10.375,12.949,0,14.274-21.469,14.274ZM248.043,46.23h7.875a7.18559,7.18559,0,0,0,4.469-1.324,5.04454,5.04454,0,0,0,1.929-4.316,4.5628,4.5628,0,0,0-2.16-4.203,8.866,8.866,0,0,0-4.73-1.325h-7.383Zm0-20.519h6.852a5.36172,5.36172,0,0,0,3.371-1.176,3.81265,3.81265,0,0,0,1.515-3.18,4.33016,4.33016,0,0,0-1.742-3.843,6.83493,6.83493,0,0,0-3.937-1.192h-6.059Zm0,0"></path>
   <path d="M283.859,21.055q0-7.992,5.508-12.024A22.492,22.492,0,0,1,303.016,5a28.7696,28.7696,0,0,1,13.933,3.559V20.184a23.66447,23.66447,0,0,0-12.004-3.711,13.66371,13.66371,0,0,0-5.394,1.004,3.41385,3.41385,0,0,0-2.363,3.312,2.85233,2.85233,0,0,0,1.738,2.461,14.31338,14.31338,0,0,0,4.429,1.477,34.39307,34.39307,0,0,1,5.739,1.625,33.86585,33.86585,0,0,1,5.734,2.765,12.13378,12.13378,0,0,1,4.43,5.035A18.07772,18.07772,0,0,1,321,42.445a13.42627,13.42627,0,0,1-5.434,11.075,20.7296,20.7296,0,0,1-13.195,4.257q-10.635,0-17.906-5.035V40.285a24.22342,24.22342,0,0,0,15.863,5.945h.113a10.85733,10.85733,0,0,0,5.094-1.117,3.482,3.482,0,0,0,2.137-3.199,2.90567,2.90567,0,0,0-1.324-2.387,10.13089,10.13089,0,0,0-3.446-1.55l-4.617-1.172a31.85831,31.85831,0,0,1-5.055-1.707,21.65906,21.65906,0,0,1-4.64-2.688,11.5,11.5,0,0,1-3.406-4.504,16.43516,16.43516,0,0,1-1.325-6.851Zm0,0"></path>
</svg>